%TF.GenerationSoftware,KiCad,Pcbnew,9.0.6*%
%TF.CreationDate,2025-12-09T19:02:22+01:00*%
%TF.ProjectId,tictactoe,74696374-6163-4746-9f65-2e6b69636164,rev?*%
%TF.SameCoordinates,Original*%
%TF.FileFunction,Soldermask,Bot*%
%TF.FilePolarity,Negative*%
%FSLAX46Y46*%
G04 Gerber Fmt 4.6, Leading zero omitted, Abs format (unit mm)*
G04 Created by KiCad (PCBNEW 9.0.6) date 2025-12-09 19:02:22*
%MOMM*%
%LPD*%
G01*
G04 APERTURE LIST*
G04 Aperture macros list*
%AMRoundRect*
0 Rectangle with rounded corners*
0 $1 Rounding radius*
0 $2 $3 $4 $5 $6 $7 $8 $9 X,Y pos of 4 corners*
0 Add a 4 corners polygon primitive as box body*
4,1,4,$2,$3,$4,$5,$6,$7,$8,$9,$2,$3,0*
0 Add four circle primitives for the rounded corners*
1,1,$1+$1,$2,$3*
1,1,$1+$1,$4,$5*
1,1,$1+$1,$6,$7*
1,1,$1+$1,$8,$9*
0 Add four rect primitives between the rounded corners*
20,1,$1+$1,$2,$3,$4,$5,0*
20,1,$1+$1,$4,$5,$6,$7,0*
20,1,$1+$1,$6,$7,$8,$9,0*
20,1,$1+$1,$8,$9,$2,$3,0*%
G04 Aperture macros list end*
%ADD10O,1.070000X1.800000*%
%ADD11R,1.070000X1.800000*%
%ADD12O,1.100000X1.700000*%
%ADD13RoundRect,0.250000X0.550000X-0.550000X0.550000X0.550000X-0.550000X0.550000X-0.550000X-0.550000X0*%
%ADD14C,1.600000*%
%ADD15C,2.000000*%
G04 APERTURE END LIST*
D10*
%TO.C,D7*%
X139385000Y-71585000D03*
X138115000Y-71585000D03*
X136845000Y-71585000D03*
D11*
X135575000Y-71585000D03*
%TD*%
D10*
%TO.C,D8*%
X150425000Y-71585000D03*
X149155000Y-71585000D03*
X147885000Y-71585000D03*
D11*
X146615000Y-71585000D03*
%TD*%
D10*
%TO.C,D9*%
X161405000Y-71585000D03*
X160135000Y-71585000D03*
X158865000Y-71585000D03*
D11*
X157595000Y-71585000D03*
%TD*%
D10*
%TO.C,D4*%
X161390000Y-60585000D03*
X160120000Y-60585000D03*
X158850000Y-60585000D03*
D11*
X157580000Y-60585000D03*
%TD*%
D10*
%TO.C,D2*%
X150385000Y-49585000D03*
X149115000Y-49585000D03*
X147845000Y-49585000D03*
D11*
X146575000Y-49585000D03*
%TD*%
D10*
%TO.C,D5*%
X150385000Y-60585000D03*
X149115000Y-60585000D03*
X147845000Y-60585000D03*
D11*
X146575000Y-60585000D03*
%TD*%
D10*
%TO.C,D3*%
X161385000Y-49585000D03*
X160115000Y-49585000D03*
X158845000Y-49585000D03*
D11*
X157575000Y-49585000D03*
%TD*%
D10*
%TO.C,D6*%
X139385000Y-60585000D03*
X138115000Y-60585000D03*
X136845000Y-60585000D03*
D11*
X135575000Y-60585000D03*
%TD*%
D12*
%TO.C,J1*%
X144170000Y-35400000D03*
X144170000Y-39200000D03*
X152810000Y-35400000D03*
X152810000Y-39200000D03*
%TD*%
D11*
%TO.C,D1*%
X135585000Y-49550000D03*
D10*
X136855000Y-49550000D03*
X138125000Y-49550000D03*
X139395000Y-49550000D03*
%TD*%
D13*
%TO.C,U1*%
X131980000Y-86355000D03*
D14*
X134520000Y-86355000D03*
X137060000Y-86355000D03*
X139600000Y-86355000D03*
X142140000Y-86355000D03*
X144680000Y-86355000D03*
X147220000Y-86355000D03*
X149760000Y-86355000D03*
X152300000Y-86355000D03*
X154840000Y-86355000D03*
X157380000Y-86355000D03*
X159920000Y-86355000D03*
X162460000Y-86355000D03*
X165000000Y-86355000D03*
X165000000Y-78735000D03*
X162460000Y-78735000D03*
X159920000Y-78735000D03*
X157380000Y-78735000D03*
X154840000Y-78735000D03*
X152300000Y-78735000D03*
X149760000Y-78735000D03*
X147220000Y-78735000D03*
X144680000Y-78735000D03*
X142140000Y-78735000D03*
X139600000Y-78735000D03*
X137060000Y-78735000D03*
X134520000Y-78735000D03*
X131980000Y-78735000D03*
%TD*%
D15*
%TO.C,SW9*%
X155790000Y-117415564D03*
X162290000Y-117415564D03*
X155790000Y-121915564D03*
X162290000Y-121915564D03*
%TD*%
%TO.C,SW8*%
X155790000Y-108865564D03*
X162290000Y-108865564D03*
X155790000Y-113365564D03*
X162290000Y-113365564D03*
%TD*%
%TO.C,SW7*%
X155790000Y-100315564D03*
X162290000Y-100315564D03*
X155790000Y-104815564D03*
X162290000Y-104815564D03*
%TD*%
%TO.C,SW6*%
X145240000Y-117415564D03*
X151740000Y-117415564D03*
X145240000Y-121915564D03*
X151740000Y-121915564D03*
%TD*%
%TO.C,SW5*%
X145240000Y-108865564D03*
X151740000Y-108865564D03*
X145240000Y-113365564D03*
X151740000Y-113365564D03*
%TD*%
%TO.C,SW4*%
X145240000Y-100315564D03*
X151740000Y-100315564D03*
X145240000Y-104815564D03*
X151740000Y-104815564D03*
%TD*%
%TO.C,SW3*%
X134690000Y-117415564D03*
X141190000Y-117415564D03*
X134690000Y-121915564D03*
X141190000Y-121915564D03*
%TD*%
%TO.C,SW2*%
X134690000Y-108865564D03*
X141190000Y-108865564D03*
X134690000Y-113365564D03*
X141190000Y-113365564D03*
%TD*%
%TO.C,SW1*%
X134690000Y-100315564D03*
X141190000Y-100315564D03*
X134690000Y-104815564D03*
X141190000Y-104815564D03*
%TD*%
D11*
%TO.C,D10*%
X146585000Y-92550000D03*
D10*
X147855000Y-92550000D03*
X149125000Y-92550000D03*
X150395000Y-92550000D03*
%TD*%
M02*
