%TF.GenerationSoftware,KiCad,Pcbnew,9.0.6*%
%TF.CreationDate,2025-12-09T19:02:22+01:00*%
%TF.ProjectId,tictactoe,74696374-6163-4746-9f65-2e6b69636164,rev?*%
%TF.SameCoordinates,Original*%
%TF.FileFunction,Legend,Bot*%
%TF.FilePolarity,Positive*%
%FSLAX46Y46*%
G04 Gerber Fmt 4.6, Leading zero omitted, Abs format (unit mm)*
G04 Created by KiCad (PCBNEW 9.0.6) date 2025-12-09 19:02:22*
%MOMM*%
%LPD*%
G01*
G04 APERTURE LIST*
%ADD10C,0.300000*%
G04 APERTURE END LIST*
D10*
X138445489Y-125800828D02*
X138445489Y-124300828D01*
X138445489Y-124872257D02*
X138302632Y-124800828D01*
X138302632Y-124800828D02*
X138016917Y-124800828D01*
X138016917Y-124800828D02*
X137874060Y-124872257D01*
X137874060Y-124872257D02*
X137802632Y-124943685D01*
X137802632Y-124943685D02*
X137731203Y-125086542D01*
X137731203Y-125086542D02*
X137731203Y-125515114D01*
X137731203Y-125515114D02*
X137802632Y-125657971D01*
X137802632Y-125657971D02*
X137874060Y-125729400D01*
X137874060Y-125729400D02*
X138016917Y-125800828D01*
X138016917Y-125800828D02*
X138302632Y-125800828D01*
X138302632Y-125800828D02*
X138445489Y-125729400D01*
X137231203Y-124800828D02*
X136874060Y-125800828D01*
X136516917Y-124800828D02*
X136874060Y-125800828D01*
X136874060Y-125800828D02*
X137016917Y-126157971D01*
X137016917Y-126157971D02*
X137088346Y-126229400D01*
X137088346Y-126229400D02*
X137231203Y-126300828D01*
X134802632Y-124800828D02*
X134802632Y-125800828D01*
X134802632Y-124943685D02*
X134731203Y-124872257D01*
X134731203Y-124872257D02*
X134588346Y-124800828D01*
X134588346Y-124800828D02*
X134374060Y-124800828D01*
X134374060Y-124800828D02*
X134231203Y-124872257D01*
X134231203Y-124872257D02*
X134159775Y-125015114D01*
X134159775Y-125015114D02*
X134159775Y-125800828D01*
X133445489Y-125800828D02*
X133445489Y-124800828D01*
X133445489Y-124300828D02*
X133516917Y-124372257D01*
X133516917Y-124372257D02*
X133445489Y-124443685D01*
X133445489Y-124443685D02*
X133374060Y-124372257D01*
X133374060Y-124372257D02*
X133445489Y-124300828D01*
X133445489Y-124300828D02*
X133445489Y-124443685D01*
X132516917Y-125800828D02*
X132659774Y-125729400D01*
X132659774Y-125729400D02*
X132731203Y-125586542D01*
X132731203Y-125586542D02*
X132731203Y-124300828D01*
X132016917Y-125729400D02*
X131874060Y-125800828D01*
X131874060Y-125800828D02*
X131588346Y-125800828D01*
X131588346Y-125800828D02*
X131445489Y-125729400D01*
X131445489Y-125729400D02*
X131374060Y-125586542D01*
X131374060Y-125586542D02*
X131374060Y-125515114D01*
X131374060Y-125515114D02*
X131445489Y-125372257D01*
X131445489Y-125372257D02*
X131588346Y-125300828D01*
X131588346Y-125300828D02*
X131802632Y-125300828D01*
X131802632Y-125300828D02*
X131945489Y-125229400D01*
X131945489Y-125229400D02*
X132016917Y-125086542D01*
X132016917Y-125086542D02*
X132016917Y-125015114D01*
X132016917Y-125015114D02*
X131945489Y-124872257D01*
X131945489Y-124872257D02*
X131802632Y-124800828D01*
X131802632Y-124800828D02*
X131588346Y-124800828D01*
X131588346Y-124800828D02*
X131445489Y-124872257D01*
X130516917Y-125800828D02*
X130659774Y-125729400D01*
X130659774Y-125729400D02*
X130731203Y-125586542D01*
X130731203Y-125586542D02*
X130731203Y-124300828D01*
X129945489Y-125800828D02*
X129945489Y-124800828D01*
X129945489Y-124943685D02*
X129874060Y-124872257D01*
X129874060Y-124872257D02*
X129731203Y-124800828D01*
X129731203Y-124800828D02*
X129516917Y-124800828D01*
X129516917Y-124800828D02*
X129374060Y-124872257D01*
X129374060Y-124872257D02*
X129302632Y-125015114D01*
X129302632Y-125015114D02*
X129302632Y-125800828D01*
X129302632Y-125015114D02*
X129231203Y-124872257D01*
X129231203Y-124872257D02*
X129088346Y-124800828D01*
X129088346Y-124800828D02*
X128874060Y-124800828D01*
X128874060Y-124800828D02*
X128731203Y-124872257D01*
X128731203Y-124872257D02*
X128659774Y-125015114D01*
X128659774Y-125015114D02*
X128659774Y-125800828D01*
M02*
