M48
; DRILL file {KiCad 9.0.6} date 2025-12-09T19:02:19+0100
; FORMAT={-:-/ absolute / metric / decimal}
; #@! TF.CreationDate,2025-12-09T19:02:19+01:00
; #@! TF.GenerationSoftware,Kicad,Pcbnew,9.0.6
; #@! TF.FileFunction,Plated,1,2,PTH
FMAT,2
METRIC
; #@! TA.AperFunction,Plated,PTH,ComponentDrill
T1C0.600
; #@! TA.AperFunction,Plated,PTH,ComponentDrill
T2C0.800
; #@! TA.AperFunction,Plated,PTH,ComponentDrill
T3C0.900
; #@! TA.AperFunction,Plated,PTH,ComponentDrill
T4C1.100
%
G90
G05
T2
X131.98Y-78.735
X131.98Y-86.355
X134.52Y-78.735
X134.52Y-86.355
X137.06Y-78.735
X137.06Y-86.355
X139.6Y-78.735
X139.6Y-86.355
X142.14Y-78.735
X142.14Y-86.355
X144.68Y-78.735
X144.68Y-86.355
X147.22Y-78.735
X147.22Y-86.355
X149.76Y-78.735
X149.76Y-86.355
X152.3Y-78.735
X152.3Y-86.355
X154.84Y-78.735
X154.84Y-86.355
X157.38Y-78.735
X157.38Y-86.355
X159.92Y-78.735
X159.92Y-86.355
X162.46Y-78.735
X162.46Y-86.355
X165.0Y-78.735
X165.0Y-86.355
T3
X135.575Y-60.585
X135.575Y-71.585
X135.585Y-49.55
X136.845Y-60.585
X136.845Y-71.585
X136.855Y-49.55
X138.115Y-60.585
X138.115Y-71.585
X138.125Y-49.55
X139.385Y-60.585
X139.385Y-71.585
X139.395Y-49.55
X146.575Y-49.585
X146.575Y-60.585
X146.585Y-92.55
X146.615Y-71.585
X147.845Y-49.585
X147.845Y-60.585
X147.855Y-92.55
X147.885Y-71.585
X149.115Y-49.585
X149.115Y-60.585
X149.125Y-92.55
X149.155Y-71.585
X150.385Y-49.585
X150.385Y-60.585
X150.395Y-92.55
X150.425Y-71.585
X157.575Y-49.585
X157.58Y-60.585
X157.595Y-71.585
X158.845Y-49.585
X158.85Y-60.585
X158.865Y-71.585
X160.115Y-49.585
X160.12Y-60.585
X160.135Y-71.585
X161.385Y-49.585
X161.39Y-60.585
X161.405Y-71.585
T4
X134.69Y-100.316
X134.69Y-104.816
X134.69Y-108.866
X134.69Y-113.366
X134.69Y-117.416
X134.69Y-121.916
X141.19Y-100.316
X141.19Y-104.816
X141.19Y-108.866
X141.19Y-113.366
X141.19Y-117.416
X141.19Y-121.916
X145.24Y-100.316
X145.24Y-104.816
X145.24Y-108.866
X145.24Y-113.366
X145.24Y-117.416
X145.24Y-121.916
X151.74Y-100.316
X151.74Y-104.816
X151.74Y-108.866
X151.74Y-113.366
X151.74Y-117.416
X151.74Y-121.916
X155.79Y-100.316
X155.79Y-104.816
X155.79Y-108.866
X155.79Y-113.366
X155.79Y-117.416
X155.79Y-121.916
X162.29Y-100.316
X162.29Y-104.816
X162.29Y-108.866
X162.29Y-113.366
X162.29Y-117.416
X162.29Y-121.916
T1
G00X144.17Y-35.7
M15
G01X144.17Y-35.1
M16
G05
G00X144.17Y-39.5
M15
G01X144.17Y-38.9
M16
G05
G00X152.81Y-35.7
M15
G01X152.81Y-35.1
M16
G05
G00X152.81Y-39.5
M15
G01X152.81Y-38.9
M16
G05
M30
