%TF.GenerationSoftware,KiCad,Pcbnew,9.0.6*%
%TF.CreationDate,2025-12-09T19:02:22+01:00*%
%TF.ProjectId,tictactoe,74696374-6163-4746-9f65-2e6b69636164,rev?*%
%TF.SameCoordinates,Original*%
%TF.FileFunction,Legend,Top*%
%TF.FilePolarity,Positive*%
%FSLAX46Y46*%
G04 Gerber Fmt 4.6, Leading zero omitted, Abs format (unit mm)*
G04 Created by KiCad (PCBNEW 9.0.6) date 2025-12-09 19:02:22*
%MOMM*%
%LPD*%
G01*
G04 APERTURE LIST*
%ADD10C,0.300000*%
%ADD11C,0.200000*%
%ADD12C,0.150000*%
%ADD13C,0.120000*%
G04 APERTURE END LIST*
D10*
X129492606Y-92636209D02*
X129416415Y-92712400D01*
X129416415Y-92712400D02*
X129187844Y-92788590D01*
X129187844Y-92788590D02*
X129035463Y-92788590D01*
X129035463Y-92788590D02*
X128806891Y-92712400D01*
X128806891Y-92712400D02*
X128654510Y-92560019D01*
X128654510Y-92560019D02*
X128578320Y-92407638D01*
X128578320Y-92407638D02*
X128502129Y-92102876D01*
X128502129Y-92102876D02*
X128502129Y-91874304D01*
X128502129Y-91874304D02*
X128578320Y-91569542D01*
X128578320Y-91569542D02*
X128654510Y-91417161D01*
X128654510Y-91417161D02*
X128806891Y-91264780D01*
X128806891Y-91264780D02*
X129035463Y-91188590D01*
X129035463Y-91188590D02*
X129187844Y-91188590D01*
X129187844Y-91188590D02*
X129416415Y-91264780D01*
X129416415Y-91264780D02*
X129492606Y-91340971D01*
X130864034Y-91721923D02*
X130864034Y-92788590D01*
X130178320Y-91721923D02*
X130178320Y-92560019D01*
X130178320Y-92560019D02*
X130254510Y-92712400D01*
X130254510Y-92712400D02*
X130406891Y-92788590D01*
X130406891Y-92788590D02*
X130635463Y-92788590D01*
X130635463Y-92788590D02*
X130787844Y-92712400D01*
X130787844Y-92712400D02*
X130864034Y-92636209D01*
X131625939Y-92788590D02*
X131625939Y-91721923D01*
X131625939Y-92026685D02*
X131702129Y-91874304D01*
X131702129Y-91874304D02*
X131778320Y-91798114D01*
X131778320Y-91798114D02*
X131930701Y-91721923D01*
X131930701Y-91721923D02*
X132083082Y-91721923D01*
X132616415Y-92788590D02*
X132616415Y-91721923D01*
X132616415Y-92026685D02*
X132692605Y-91874304D01*
X132692605Y-91874304D02*
X132768796Y-91798114D01*
X132768796Y-91798114D02*
X132921177Y-91721923D01*
X132921177Y-91721923D02*
X133073558Y-91721923D01*
X134216415Y-92712400D02*
X134064034Y-92788590D01*
X134064034Y-92788590D02*
X133759272Y-92788590D01*
X133759272Y-92788590D02*
X133606891Y-92712400D01*
X133606891Y-92712400D02*
X133530700Y-92560019D01*
X133530700Y-92560019D02*
X133530700Y-91950495D01*
X133530700Y-91950495D02*
X133606891Y-91798114D01*
X133606891Y-91798114D02*
X133759272Y-91721923D01*
X133759272Y-91721923D02*
X134064034Y-91721923D01*
X134064034Y-91721923D02*
X134216415Y-91798114D01*
X134216415Y-91798114D02*
X134292605Y-91950495D01*
X134292605Y-91950495D02*
X134292605Y-92102876D01*
X134292605Y-92102876D02*
X133530700Y-92255257D01*
X134978320Y-91721923D02*
X134978320Y-92788590D01*
X134978320Y-91874304D02*
X135054510Y-91798114D01*
X135054510Y-91798114D02*
X135206891Y-91721923D01*
X135206891Y-91721923D02*
X135435463Y-91721923D01*
X135435463Y-91721923D02*
X135587844Y-91798114D01*
X135587844Y-91798114D02*
X135664034Y-91950495D01*
X135664034Y-91950495D02*
X135664034Y-92788590D01*
X136197367Y-91721923D02*
X136806891Y-91721923D01*
X136425939Y-91188590D02*
X136425939Y-92560019D01*
X136425939Y-92560019D02*
X136502129Y-92712400D01*
X136502129Y-92712400D02*
X136654510Y-92788590D01*
X136654510Y-92788590D02*
X136806891Y-92788590D01*
X138330701Y-91188590D02*
X139244987Y-91188590D01*
X138787844Y-92788590D02*
X138787844Y-91188590D01*
X140464035Y-91721923D02*
X140464035Y-92788590D01*
X139778321Y-91721923D02*
X139778321Y-92560019D01*
X139778321Y-92560019D02*
X139854511Y-92712400D01*
X139854511Y-92712400D02*
X140006892Y-92788590D01*
X140006892Y-92788590D02*
X140235464Y-92788590D01*
X140235464Y-92788590D02*
X140387845Y-92712400D01*
X140387845Y-92712400D02*
X140464035Y-92636209D01*
X141225940Y-92788590D02*
X141225940Y-91721923D01*
X141225940Y-92026685D02*
X141302130Y-91874304D01*
X141302130Y-91874304D02*
X141378321Y-91798114D01*
X141378321Y-91798114D02*
X141530702Y-91721923D01*
X141530702Y-91721923D02*
X141683083Y-91721923D01*
X142216416Y-91721923D02*
X142216416Y-92788590D01*
X142216416Y-91874304D02*
X142292606Y-91798114D01*
X142292606Y-91798114D02*
X142444987Y-91721923D01*
X142444987Y-91721923D02*
X142673559Y-91721923D01*
X142673559Y-91721923D02*
X142825940Y-91798114D01*
X142825940Y-91798114D02*
X142902130Y-91950495D01*
X142902130Y-91950495D02*
X142902130Y-92788590D01*
X143664035Y-92636209D02*
X143740225Y-92712400D01*
X143740225Y-92712400D02*
X143664035Y-92788590D01*
X143664035Y-92788590D02*
X143587844Y-92712400D01*
X143587844Y-92712400D02*
X143664035Y-92636209D01*
X143664035Y-92636209D02*
X143664035Y-92788590D01*
X143664035Y-91798114D02*
X143740225Y-91874304D01*
X143740225Y-91874304D02*
X143664035Y-91950495D01*
X143664035Y-91950495D02*
X143587844Y-91874304D01*
X143587844Y-91874304D02*
X143664035Y-91798114D01*
X143664035Y-91798114D02*
X143664035Y-91950495D01*
X128387844Y-35739638D02*
X129530701Y-35739638D01*
X128959272Y-37739638D02*
X128959272Y-35739638D01*
X130197368Y-37739638D02*
X130197368Y-36406304D01*
X130197368Y-35739638D02*
X130102130Y-35834876D01*
X130102130Y-35834876D02*
X130197368Y-35930114D01*
X130197368Y-35930114D02*
X130292606Y-35834876D01*
X130292606Y-35834876D02*
X130197368Y-35739638D01*
X130197368Y-35739638D02*
X130197368Y-35930114D01*
X132006892Y-37644400D02*
X131816416Y-37739638D01*
X131816416Y-37739638D02*
X131435463Y-37739638D01*
X131435463Y-37739638D02*
X131244987Y-37644400D01*
X131244987Y-37644400D02*
X131149749Y-37549161D01*
X131149749Y-37549161D02*
X131054511Y-37358685D01*
X131054511Y-37358685D02*
X131054511Y-36787257D01*
X131054511Y-36787257D02*
X131149749Y-36596780D01*
X131149749Y-36596780D02*
X131244987Y-36501542D01*
X131244987Y-36501542D02*
X131435463Y-36406304D01*
X131435463Y-36406304D02*
X131816416Y-36406304D01*
X131816416Y-36406304D02*
X132006892Y-36501542D01*
X132578321Y-35739638D02*
X133721178Y-35739638D01*
X133149749Y-37739638D02*
X133149749Y-35739638D01*
X135244988Y-37739638D02*
X135244988Y-36692019D01*
X135244988Y-36692019D02*
X135149750Y-36501542D01*
X135149750Y-36501542D02*
X134959274Y-36406304D01*
X134959274Y-36406304D02*
X134578321Y-36406304D01*
X134578321Y-36406304D02*
X134387845Y-36501542D01*
X135244988Y-37644400D02*
X135054512Y-37739638D01*
X135054512Y-37739638D02*
X134578321Y-37739638D01*
X134578321Y-37739638D02*
X134387845Y-37644400D01*
X134387845Y-37644400D02*
X134292607Y-37453923D01*
X134292607Y-37453923D02*
X134292607Y-37263447D01*
X134292607Y-37263447D02*
X134387845Y-37072971D01*
X134387845Y-37072971D02*
X134578321Y-36977733D01*
X134578321Y-36977733D02*
X135054512Y-36977733D01*
X135054512Y-36977733D02*
X135244988Y-36882495D01*
X137054512Y-37644400D02*
X136864036Y-37739638D01*
X136864036Y-37739638D02*
X136483083Y-37739638D01*
X136483083Y-37739638D02*
X136292607Y-37644400D01*
X136292607Y-37644400D02*
X136197369Y-37549161D01*
X136197369Y-37549161D02*
X136102131Y-37358685D01*
X136102131Y-37358685D02*
X136102131Y-36787257D01*
X136102131Y-36787257D02*
X136197369Y-36596780D01*
X136197369Y-36596780D02*
X136292607Y-36501542D01*
X136292607Y-36501542D02*
X136483083Y-36406304D01*
X136483083Y-36406304D02*
X136864036Y-36406304D01*
X136864036Y-36406304D02*
X137054512Y-36501542D01*
X137625941Y-35739638D02*
X138768798Y-35739638D01*
X138197369Y-37739638D02*
X138197369Y-35739638D01*
X139721179Y-37739638D02*
X139530703Y-37644400D01*
X139530703Y-37644400D02*
X139435465Y-37549161D01*
X139435465Y-37549161D02*
X139340227Y-37358685D01*
X139340227Y-37358685D02*
X139340227Y-36787257D01*
X139340227Y-36787257D02*
X139435465Y-36596780D01*
X139435465Y-36596780D02*
X139530703Y-36501542D01*
X139530703Y-36501542D02*
X139721179Y-36406304D01*
X139721179Y-36406304D02*
X140006894Y-36406304D01*
X140006894Y-36406304D02*
X140197370Y-36501542D01*
X140197370Y-36501542D02*
X140292608Y-36596780D01*
X140292608Y-36596780D02*
X140387846Y-36787257D01*
X140387846Y-36787257D02*
X140387846Y-37358685D01*
X140387846Y-37358685D02*
X140292608Y-37549161D01*
X140292608Y-37549161D02*
X140197370Y-37644400D01*
X140197370Y-37644400D02*
X140006894Y-37739638D01*
X140006894Y-37739638D02*
X139721179Y-37739638D01*
X142006894Y-37644400D02*
X141816418Y-37739638D01*
X141816418Y-37739638D02*
X141435465Y-37739638D01*
X141435465Y-37739638D02*
X141244989Y-37644400D01*
X141244989Y-37644400D02*
X141149751Y-37453923D01*
X141149751Y-37453923D02*
X141149751Y-36692019D01*
X141149751Y-36692019D02*
X141244989Y-36501542D01*
X141244989Y-36501542D02*
X141435465Y-36406304D01*
X141435465Y-36406304D02*
X141816418Y-36406304D01*
X141816418Y-36406304D02*
X142006894Y-36501542D01*
X142006894Y-36501542D02*
X142102132Y-36692019D01*
X142102132Y-36692019D02*
X142102132Y-36882495D01*
X142102132Y-36882495D02*
X141149751Y-37072971D01*
D11*
X165000000Y-66065000D02*
X132000000Y-66065000D01*
X143000000Y-44065000D02*
X143000000Y-77065000D01*
X132000000Y-44065000D02*
X165000000Y-44065000D01*
X165000000Y-77065000D01*
X132000000Y-77065000D01*
X132000000Y-44065000D01*
X132000000Y-55065000D02*
X165000000Y-55065000D01*
X154000000Y-77065000D02*
X154000000Y-44065000D01*
D12*
X136741905Y-68079819D02*
X136741905Y-67079819D01*
X136741905Y-67079819D02*
X136980000Y-67079819D01*
X136980000Y-67079819D02*
X137122857Y-67127438D01*
X137122857Y-67127438D02*
X137218095Y-67222676D01*
X137218095Y-67222676D02*
X137265714Y-67317914D01*
X137265714Y-67317914D02*
X137313333Y-67508390D01*
X137313333Y-67508390D02*
X137313333Y-67651247D01*
X137313333Y-67651247D02*
X137265714Y-67841723D01*
X137265714Y-67841723D02*
X137218095Y-67936961D01*
X137218095Y-67936961D02*
X137122857Y-68032200D01*
X137122857Y-68032200D02*
X136980000Y-68079819D01*
X136980000Y-68079819D02*
X136741905Y-68079819D01*
X137646667Y-67079819D02*
X138313333Y-67079819D01*
X138313333Y-67079819D02*
X137884762Y-68079819D01*
X147781905Y-68079819D02*
X147781905Y-67079819D01*
X147781905Y-67079819D02*
X148020000Y-67079819D01*
X148020000Y-67079819D02*
X148162857Y-67127438D01*
X148162857Y-67127438D02*
X148258095Y-67222676D01*
X148258095Y-67222676D02*
X148305714Y-67317914D01*
X148305714Y-67317914D02*
X148353333Y-67508390D01*
X148353333Y-67508390D02*
X148353333Y-67651247D01*
X148353333Y-67651247D02*
X148305714Y-67841723D01*
X148305714Y-67841723D02*
X148258095Y-67936961D01*
X148258095Y-67936961D02*
X148162857Y-68032200D01*
X148162857Y-68032200D02*
X148020000Y-68079819D01*
X148020000Y-68079819D02*
X147781905Y-68079819D01*
X148924762Y-67508390D02*
X148829524Y-67460771D01*
X148829524Y-67460771D02*
X148781905Y-67413152D01*
X148781905Y-67413152D02*
X148734286Y-67317914D01*
X148734286Y-67317914D02*
X148734286Y-67270295D01*
X148734286Y-67270295D02*
X148781905Y-67175057D01*
X148781905Y-67175057D02*
X148829524Y-67127438D01*
X148829524Y-67127438D02*
X148924762Y-67079819D01*
X148924762Y-67079819D02*
X149115238Y-67079819D01*
X149115238Y-67079819D02*
X149210476Y-67127438D01*
X149210476Y-67127438D02*
X149258095Y-67175057D01*
X149258095Y-67175057D02*
X149305714Y-67270295D01*
X149305714Y-67270295D02*
X149305714Y-67317914D01*
X149305714Y-67317914D02*
X149258095Y-67413152D01*
X149258095Y-67413152D02*
X149210476Y-67460771D01*
X149210476Y-67460771D02*
X149115238Y-67508390D01*
X149115238Y-67508390D02*
X148924762Y-67508390D01*
X148924762Y-67508390D02*
X148829524Y-67556009D01*
X148829524Y-67556009D02*
X148781905Y-67603628D01*
X148781905Y-67603628D02*
X148734286Y-67698866D01*
X148734286Y-67698866D02*
X148734286Y-67889342D01*
X148734286Y-67889342D02*
X148781905Y-67984580D01*
X148781905Y-67984580D02*
X148829524Y-68032200D01*
X148829524Y-68032200D02*
X148924762Y-68079819D01*
X148924762Y-68079819D02*
X149115238Y-68079819D01*
X149115238Y-68079819D02*
X149210476Y-68032200D01*
X149210476Y-68032200D02*
X149258095Y-67984580D01*
X149258095Y-67984580D02*
X149305714Y-67889342D01*
X149305714Y-67889342D02*
X149305714Y-67698866D01*
X149305714Y-67698866D02*
X149258095Y-67603628D01*
X149258095Y-67603628D02*
X149210476Y-67556009D01*
X149210476Y-67556009D02*
X149115238Y-67508390D01*
X158761905Y-68079819D02*
X158761905Y-67079819D01*
X158761905Y-67079819D02*
X159000000Y-67079819D01*
X159000000Y-67079819D02*
X159142857Y-67127438D01*
X159142857Y-67127438D02*
X159238095Y-67222676D01*
X159238095Y-67222676D02*
X159285714Y-67317914D01*
X159285714Y-67317914D02*
X159333333Y-67508390D01*
X159333333Y-67508390D02*
X159333333Y-67651247D01*
X159333333Y-67651247D02*
X159285714Y-67841723D01*
X159285714Y-67841723D02*
X159238095Y-67936961D01*
X159238095Y-67936961D02*
X159142857Y-68032200D01*
X159142857Y-68032200D02*
X159000000Y-68079819D01*
X159000000Y-68079819D02*
X158761905Y-68079819D01*
X159809524Y-68079819D02*
X160000000Y-68079819D01*
X160000000Y-68079819D02*
X160095238Y-68032200D01*
X160095238Y-68032200D02*
X160142857Y-67984580D01*
X160142857Y-67984580D02*
X160238095Y-67841723D01*
X160238095Y-67841723D02*
X160285714Y-67651247D01*
X160285714Y-67651247D02*
X160285714Y-67270295D01*
X160285714Y-67270295D02*
X160238095Y-67175057D01*
X160238095Y-67175057D02*
X160190476Y-67127438D01*
X160190476Y-67127438D02*
X160095238Y-67079819D01*
X160095238Y-67079819D02*
X159904762Y-67079819D01*
X159904762Y-67079819D02*
X159809524Y-67127438D01*
X159809524Y-67127438D02*
X159761905Y-67175057D01*
X159761905Y-67175057D02*
X159714286Y-67270295D01*
X159714286Y-67270295D02*
X159714286Y-67508390D01*
X159714286Y-67508390D02*
X159761905Y-67603628D01*
X159761905Y-67603628D02*
X159809524Y-67651247D01*
X159809524Y-67651247D02*
X159904762Y-67698866D01*
X159904762Y-67698866D02*
X160095238Y-67698866D01*
X160095238Y-67698866D02*
X160190476Y-67651247D01*
X160190476Y-67651247D02*
X160238095Y-67603628D01*
X160238095Y-67603628D02*
X160285714Y-67508390D01*
X158746905Y-57079819D02*
X158746905Y-56079819D01*
X158746905Y-56079819D02*
X158985000Y-56079819D01*
X158985000Y-56079819D02*
X159127857Y-56127438D01*
X159127857Y-56127438D02*
X159223095Y-56222676D01*
X159223095Y-56222676D02*
X159270714Y-56317914D01*
X159270714Y-56317914D02*
X159318333Y-56508390D01*
X159318333Y-56508390D02*
X159318333Y-56651247D01*
X159318333Y-56651247D02*
X159270714Y-56841723D01*
X159270714Y-56841723D02*
X159223095Y-56936961D01*
X159223095Y-56936961D02*
X159127857Y-57032200D01*
X159127857Y-57032200D02*
X158985000Y-57079819D01*
X158985000Y-57079819D02*
X158746905Y-57079819D01*
X160175476Y-56413152D02*
X160175476Y-57079819D01*
X159937381Y-56032200D02*
X159699286Y-56746485D01*
X159699286Y-56746485D02*
X160318333Y-56746485D01*
X147741905Y-46079819D02*
X147741905Y-45079819D01*
X147741905Y-45079819D02*
X147980000Y-45079819D01*
X147980000Y-45079819D02*
X148122857Y-45127438D01*
X148122857Y-45127438D02*
X148218095Y-45222676D01*
X148218095Y-45222676D02*
X148265714Y-45317914D01*
X148265714Y-45317914D02*
X148313333Y-45508390D01*
X148313333Y-45508390D02*
X148313333Y-45651247D01*
X148313333Y-45651247D02*
X148265714Y-45841723D01*
X148265714Y-45841723D02*
X148218095Y-45936961D01*
X148218095Y-45936961D02*
X148122857Y-46032200D01*
X148122857Y-46032200D02*
X147980000Y-46079819D01*
X147980000Y-46079819D02*
X147741905Y-46079819D01*
X148694286Y-45175057D02*
X148741905Y-45127438D01*
X148741905Y-45127438D02*
X148837143Y-45079819D01*
X148837143Y-45079819D02*
X149075238Y-45079819D01*
X149075238Y-45079819D02*
X149170476Y-45127438D01*
X149170476Y-45127438D02*
X149218095Y-45175057D01*
X149218095Y-45175057D02*
X149265714Y-45270295D01*
X149265714Y-45270295D02*
X149265714Y-45365533D01*
X149265714Y-45365533D02*
X149218095Y-45508390D01*
X149218095Y-45508390D02*
X148646667Y-46079819D01*
X148646667Y-46079819D02*
X149265714Y-46079819D01*
X147741905Y-57079819D02*
X147741905Y-56079819D01*
X147741905Y-56079819D02*
X147980000Y-56079819D01*
X147980000Y-56079819D02*
X148122857Y-56127438D01*
X148122857Y-56127438D02*
X148218095Y-56222676D01*
X148218095Y-56222676D02*
X148265714Y-56317914D01*
X148265714Y-56317914D02*
X148313333Y-56508390D01*
X148313333Y-56508390D02*
X148313333Y-56651247D01*
X148313333Y-56651247D02*
X148265714Y-56841723D01*
X148265714Y-56841723D02*
X148218095Y-56936961D01*
X148218095Y-56936961D02*
X148122857Y-57032200D01*
X148122857Y-57032200D02*
X147980000Y-57079819D01*
X147980000Y-57079819D02*
X147741905Y-57079819D01*
X149218095Y-56079819D02*
X148741905Y-56079819D01*
X148741905Y-56079819D02*
X148694286Y-56556009D01*
X148694286Y-56556009D02*
X148741905Y-56508390D01*
X148741905Y-56508390D02*
X148837143Y-56460771D01*
X148837143Y-56460771D02*
X149075238Y-56460771D01*
X149075238Y-56460771D02*
X149170476Y-56508390D01*
X149170476Y-56508390D02*
X149218095Y-56556009D01*
X149218095Y-56556009D02*
X149265714Y-56651247D01*
X149265714Y-56651247D02*
X149265714Y-56889342D01*
X149265714Y-56889342D02*
X149218095Y-56984580D01*
X149218095Y-56984580D02*
X149170476Y-57032200D01*
X149170476Y-57032200D02*
X149075238Y-57079819D01*
X149075238Y-57079819D02*
X148837143Y-57079819D01*
X148837143Y-57079819D02*
X148741905Y-57032200D01*
X148741905Y-57032200D02*
X148694286Y-56984580D01*
X158741905Y-46079819D02*
X158741905Y-45079819D01*
X158741905Y-45079819D02*
X158980000Y-45079819D01*
X158980000Y-45079819D02*
X159122857Y-45127438D01*
X159122857Y-45127438D02*
X159218095Y-45222676D01*
X159218095Y-45222676D02*
X159265714Y-45317914D01*
X159265714Y-45317914D02*
X159313333Y-45508390D01*
X159313333Y-45508390D02*
X159313333Y-45651247D01*
X159313333Y-45651247D02*
X159265714Y-45841723D01*
X159265714Y-45841723D02*
X159218095Y-45936961D01*
X159218095Y-45936961D02*
X159122857Y-46032200D01*
X159122857Y-46032200D02*
X158980000Y-46079819D01*
X158980000Y-46079819D02*
X158741905Y-46079819D01*
X159646667Y-45079819D02*
X160265714Y-45079819D01*
X160265714Y-45079819D02*
X159932381Y-45460771D01*
X159932381Y-45460771D02*
X160075238Y-45460771D01*
X160075238Y-45460771D02*
X160170476Y-45508390D01*
X160170476Y-45508390D02*
X160218095Y-45556009D01*
X160218095Y-45556009D02*
X160265714Y-45651247D01*
X160265714Y-45651247D02*
X160265714Y-45889342D01*
X160265714Y-45889342D02*
X160218095Y-45984580D01*
X160218095Y-45984580D02*
X160170476Y-46032200D01*
X160170476Y-46032200D02*
X160075238Y-46079819D01*
X160075238Y-46079819D02*
X159789524Y-46079819D01*
X159789524Y-46079819D02*
X159694286Y-46032200D01*
X159694286Y-46032200D02*
X159646667Y-45984580D01*
X136741905Y-57079819D02*
X136741905Y-56079819D01*
X136741905Y-56079819D02*
X136980000Y-56079819D01*
X136980000Y-56079819D02*
X137122857Y-56127438D01*
X137122857Y-56127438D02*
X137218095Y-56222676D01*
X137218095Y-56222676D02*
X137265714Y-56317914D01*
X137265714Y-56317914D02*
X137313333Y-56508390D01*
X137313333Y-56508390D02*
X137313333Y-56651247D01*
X137313333Y-56651247D02*
X137265714Y-56841723D01*
X137265714Y-56841723D02*
X137218095Y-56936961D01*
X137218095Y-56936961D02*
X137122857Y-57032200D01*
X137122857Y-57032200D02*
X136980000Y-57079819D01*
X136980000Y-57079819D02*
X136741905Y-57079819D01*
X138170476Y-56079819D02*
X137980000Y-56079819D01*
X137980000Y-56079819D02*
X137884762Y-56127438D01*
X137884762Y-56127438D02*
X137837143Y-56175057D01*
X137837143Y-56175057D02*
X137741905Y-56317914D01*
X137741905Y-56317914D02*
X137694286Y-56508390D01*
X137694286Y-56508390D02*
X137694286Y-56889342D01*
X137694286Y-56889342D02*
X137741905Y-56984580D01*
X137741905Y-56984580D02*
X137789524Y-57032200D01*
X137789524Y-57032200D02*
X137884762Y-57079819D01*
X137884762Y-57079819D02*
X138075238Y-57079819D01*
X138075238Y-57079819D02*
X138170476Y-57032200D01*
X138170476Y-57032200D02*
X138218095Y-56984580D01*
X138218095Y-56984580D02*
X138265714Y-56889342D01*
X138265714Y-56889342D02*
X138265714Y-56651247D01*
X138265714Y-56651247D02*
X138218095Y-56556009D01*
X138218095Y-56556009D02*
X138170476Y-56508390D01*
X138170476Y-56508390D02*
X138075238Y-56460771D01*
X138075238Y-56460771D02*
X137884762Y-56460771D01*
X137884762Y-56460771D02*
X137789524Y-56508390D01*
X137789524Y-56508390D02*
X137741905Y-56556009D01*
X137741905Y-56556009D02*
X137694286Y-56651247D01*
X148823333Y-41845180D02*
X148823333Y-41130895D01*
X148823333Y-41130895D02*
X148870952Y-40988038D01*
X148870952Y-40988038D02*
X148966190Y-40892800D01*
X148966190Y-40892800D02*
X149109047Y-40845180D01*
X149109047Y-40845180D02*
X149204285Y-40845180D01*
X147823333Y-40845180D02*
X148394761Y-40845180D01*
X148109047Y-40845180D02*
X148109047Y-41845180D01*
X148109047Y-41845180D02*
X148204285Y-41702323D01*
X148204285Y-41702323D02*
X148299523Y-41607085D01*
X148299523Y-41607085D02*
X148394761Y-41559466D01*
X136751905Y-46044819D02*
X136751905Y-45044819D01*
X136751905Y-45044819D02*
X136990000Y-45044819D01*
X136990000Y-45044819D02*
X137132857Y-45092438D01*
X137132857Y-45092438D02*
X137228095Y-45187676D01*
X137228095Y-45187676D02*
X137275714Y-45282914D01*
X137275714Y-45282914D02*
X137323333Y-45473390D01*
X137323333Y-45473390D02*
X137323333Y-45616247D01*
X137323333Y-45616247D02*
X137275714Y-45806723D01*
X137275714Y-45806723D02*
X137228095Y-45901961D01*
X137228095Y-45901961D02*
X137132857Y-45997200D01*
X137132857Y-45997200D02*
X136990000Y-46044819D01*
X136990000Y-46044819D02*
X136751905Y-46044819D01*
X138275714Y-46044819D02*
X137704286Y-46044819D01*
X137990000Y-46044819D02*
X137990000Y-45044819D01*
X137990000Y-45044819D02*
X137894762Y-45187676D01*
X137894762Y-45187676D02*
X137799524Y-45282914D01*
X137799524Y-45282914D02*
X137704286Y-45330533D01*
X129104819Y-83306904D02*
X129914342Y-83306904D01*
X129914342Y-83306904D02*
X130009580Y-83259285D01*
X130009580Y-83259285D02*
X130057200Y-83211666D01*
X130057200Y-83211666D02*
X130104819Y-83116428D01*
X130104819Y-83116428D02*
X130104819Y-82925952D01*
X130104819Y-82925952D02*
X130057200Y-82830714D01*
X130057200Y-82830714D02*
X130009580Y-82783095D01*
X130009580Y-82783095D02*
X129914342Y-82735476D01*
X129914342Y-82735476D02*
X129104819Y-82735476D01*
X130104819Y-81735476D02*
X130104819Y-82306904D01*
X130104819Y-82021190D02*
X129104819Y-82021190D01*
X129104819Y-82021190D02*
X129247676Y-82116428D01*
X129247676Y-82116428D02*
X129342914Y-82211666D01*
X129342914Y-82211666D02*
X129390533Y-82306904D01*
X157706667Y-115822764D02*
X157849524Y-115870383D01*
X157849524Y-115870383D02*
X158087619Y-115870383D01*
X158087619Y-115870383D02*
X158182857Y-115822764D01*
X158182857Y-115822764D02*
X158230476Y-115775144D01*
X158230476Y-115775144D02*
X158278095Y-115679906D01*
X158278095Y-115679906D02*
X158278095Y-115584668D01*
X158278095Y-115584668D02*
X158230476Y-115489430D01*
X158230476Y-115489430D02*
X158182857Y-115441811D01*
X158182857Y-115441811D02*
X158087619Y-115394192D01*
X158087619Y-115394192D02*
X157897143Y-115346573D01*
X157897143Y-115346573D02*
X157801905Y-115298954D01*
X157801905Y-115298954D02*
X157754286Y-115251335D01*
X157754286Y-115251335D02*
X157706667Y-115156097D01*
X157706667Y-115156097D02*
X157706667Y-115060859D01*
X157706667Y-115060859D02*
X157754286Y-114965621D01*
X157754286Y-114965621D02*
X157801905Y-114918002D01*
X157801905Y-114918002D02*
X157897143Y-114870383D01*
X157897143Y-114870383D02*
X158135238Y-114870383D01*
X158135238Y-114870383D02*
X158278095Y-114918002D01*
X158611429Y-114870383D02*
X158849524Y-115870383D01*
X158849524Y-115870383D02*
X159040000Y-115156097D01*
X159040000Y-115156097D02*
X159230476Y-115870383D01*
X159230476Y-115870383D02*
X159468572Y-114870383D01*
X159897143Y-115870383D02*
X160087619Y-115870383D01*
X160087619Y-115870383D02*
X160182857Y-115822764D01*
X160182857Y-115822764D02*
X160230476Y-115775144D01*
X160230476Y-115775144D02*
X160325714Y-115632287D01*
X160325714Y-115632287D02*
X160373333Y-115441811D01*
X160373333Y-115441811D02*
X160373333Y-115060859D01*
X160373333Y-115060859D02*
X160325714Y-114965621D01*
X160325714Y-114965621D02*
X160278095Y-114918002D01*
X160278095Y-114918002D02*
X160182857Y-114870383D01*
X160182857Y-114870383D02*
X159992381Y-114870383D01*
X159992381Y-114870383D02*
X159897143Y-114918002D01*
X159897143Y-114918002D02*
X159849524Y-114965621D01*
X159849524Y-114965621D02*
X159801905Y-115060859D01*
X159801905Y-115060859D02*
X159801905Y-115298954D01*
X159801905Y-115298954D02*
X159849524Y-115394192D01*
X159849524Y-115394192D02*
X159897143Y-115441811D01*
X159897143Y-115441811D02*
X159992381Y-115489430D01*
X159992381Y-115489430D02*
X160182857Y-115489430D01*
X160182857Y-115489430D02*
X160278095Y-115441811D01*
X160278095Y-115441811D02*
X160325714Y-115394192D01*
X160325714Y-115394192D02*
X160373333Y-115298954D01*
X157706667Y-107272764D02*
X157849524Y-107320383D01*
X157849524Y-107320383D02*
X158087619Y-107320383D01*
X158087619Y-107320383D02*
X158182857Y-107272764D01*
X158182857Y-107272764D02*
X158230476Y-107225144D01*
X158230476Y-107225144D02*
X158278095Y-107129906D01*
X158278095Y-107129906D02*
X158278095Y-107034668D01*
X158278095Y-107034668D02*
X158230476Y-106939430D01*
X158230476Y-106939430D02*
X158182857Y-106891811D01*
X158182857Y-106891811D02*
X158087619Y-106844192D01*
X158087619Y-106844192D02*
X157897143Y-106796573D01*
X157897143Y-106796573D02*
X157801905Y-106748954D01*
X157801905Y-106748954D02*
X157754286Y-106701335D01*
X157754286Y-106701335D02*
X157706667Y-106606097D01*
X157706667Y-106606097D02*
X157706667Y-106510859D01*
X157706667Y-106510859D02*
X157754286Y-106415621D01*
X157754286Y-106415621D02*
X157801905Y-106368002D01*
X157801905Y-106368002D02*
X157897143Y-106320383D01*
X157897143Y-106320383D02*
X158135238Y-106320383D01*
X158135238Y-106320383D02*
X158278095Y-106368002D01*
X158611429Y-106320383D02*
X158849524Y-107320383D01*
X158849524Y-107320383D02*
X159040000Y-106606097D01*
X159040000Y-106606097D02*
X159230476Y-107320383D01*
X159230476Y-107320383D02*
X159468572Y-106320383D01*
X159992381Y-106748954D02*
X159897143Y-106701335D01*
X159897143Y-106701335D02*
X159849524Y-106653716D01*
X159849524Y-106653716D02*
X159801905Y-106558478D01*
X159801905Y-106558478D02*
X159801905Y-106510859D01*
X159801905Y-106510859D02*
X159849524Y-106415621D01*
X159849524Y-106415621D02*
X159897143Y-106368002D01*
X159897143Y-106368002D02*
X159992381Y-106320383D01*
X159992381Y-106320383D02*
X160182857Y-106320383D01*
X160182857Y-106320383D02*
X160278095Y-106368002D01*
X160278095Y-106368002D02*
X160325714Y-106415621D01*
X160325714Y-106415621D02*
X160373333Y-106510859D01*
X160373333Y-106510859D02*
X160373333Y-106558478D01*
X160373333Y-106558478D02*
X160325714Y-106653716D01*
X160325714Y-106653716D02*
X160278095Y-106701335D01*
X160278095Y-106701335D02*
X160182857Y-106748954D01*
X160182857Y-106748954D02*
X159992381Y-106748954D01*
X159992381Y-106748954D02*
X159897143Y-106796573D01*
X159897143Y-106796573D02*
X159849524Y-106844192D01*
X159849524Y-106844192D02*
X159801905Y-106939430D01*
X159801905Y-106939430D02*
X159801905Y-107129906D01*
X159801905Y-107129906D02*
X159849524Y-107225144D01*
X159849524Y-107225144D02*
X159897143Y-107272764D01*
X159897143Y-107272764D02*
X159992381Y-107320383D01*
X159992381Y-107320383D02*
X160182857Y-107320383D01*
X160182857Y-107320383D02*
X160278095Y-107272764D01*
X160278095Y-107272764D02*
X160325714Y-107225144D01*
X160325714Y-107225144D02*
X160373333Y-107129906D01*
X160373333Y-107129906D02*
X160373333Y-106939430D01*
X160373333Y-106939430D02*
X160325714Y-106844192D01*
X160325714Y-106844192D02*
X160278095Y-106796573D01*
X160278095Y-106796573D02*
X160182857Y-106748954D01*
X157706667Y-98722764D02*
X157849524Y-98770383D01*
X157849524Y-98770383D02*
X158087619Y-98770383D01*
X158087619Y-98770383D02*
X158182857Y-98722764D01*
X158182857Y-98722764D02*
X158230476Y-98675144D01*
X158230476Y-98675144D02*
X158278095Y-98579906D01*
X158278095Y-98579906D02*
X158278095Y-98484668D01*
X158278095Y-98484668D02*
X158230476Y-98389430D01*
X158230476Y-98389430D02*
X158182857Y-98341811D01*
X158182857Y-98341811D02*
X158087619Y-98294192D01*
X158087619Y-98294192D02*
X157897143Y-98246573D01*
X157897143Y-98246573D02*
X157801905Y-98198954D01*
X157801905Y-98198954D02*
X157754286Y-98151335D01*
X157754286Y-98151335D02*
X157706667Y-98056097D01*
X157706667Y-98056097D02*
X157706667Y-97960859D01*
X157706667Y-97960859D02*
X157754286Y-97865621D01*
X157754286Y-97865621D02*
X157801905Y-97818002D01*
X157801905Y-97818002D02*
X157897143Y-97770383D01*
X157897143Y-97770383D02*
X158135238Y-97770383D01*
X158135238Y-97770383D02*
X158278095Y-97818002D01*
X158611429Y-97770383D02*
X158849524Y-98770383D01*
X158849524Y-98770383D02*
X159040000Y-98056097D01*
X159040000Y-98056097D02*
X159230476Y-98770383D01*
X159230476Y-98770383D02*
X159468572Y-97770383D01*
X159754286Y-97770383D02*
X160420952Y-97770383D01*
X160420952Y-97770383D02*
X159992381Y-98770383D01*
X147156667Y-115822764D02*
X147299524Y-115870383D01*
X147299524Y-115870383D02*
X147537619Y-115870383D01*
X147537619Y-115870383D02*
X147632857Y-115822764D01*
X147632857Y-115822764D02*
X147680476Y-115775144D01*
X147680476Y-115775144D02*
X147728095Y-115679906D01*
X147728095Y-115679906D02*
X147728095Y-115584668D01*
X147728095Y-115584668D02*
X147680476Y-115489430D01*
X147680476Y-115489430D02*
X147632857Y-115441811D01*
X147632857Y-115441811D02*
X147537619Y-115394192D01*
X147537619Y-115394192D02*
X147347143Y-115346573D01*
X147347143Y-115346573D02*
X147251905Y-115298954D01*
X147251905Y-115298954D02*
X147204286Y-115251335D01*
X147204286Y-115251335D02*
X147156667Y-115156097D01*
X147156667Y-115156097D02*
X147156667Y-115060859D01*
X147156667Y-115060859D02*
X147204286Y-114965621D01*
X147204286Y-114965621D02*
X147251905Y-114918002D01*
X147251905Y-114918002D02*
X147347143Y-114870383D01*
X147347143Y-114870383D02*
X147585238Y-114870383D01*
X147585238Y-114870383D02*
X147728095Y-114918002D01*
X148061429Y-114870383D02*
X148299524Y-115870383D01*
X148299524Y-115870383D02*
X148490000Y-115156097D01*
X148490000Y-115156097D02*
X148680476Y-115870383D01*
X148680476Y-115870383D02*
X148918572Y-114870383D01*
X149728095Y-114870383D02*
X149537619Y-114870383D01*
X149537619Y-114870383D02*
X149442381Y-114918002D01*
X149442381Y-114918002D02*
X149394762Y-114965621D01*
X149394762Y-114965621D02*
X149299524Y-115108478D01*
X149299524Y-115108478D02*
X149251905Y-115298954D01*
X149251905Y-115298954D02*
X149251905Y-115679906D01*
X149251905Y-115679906D02*
X149299524Y-115775144D01*
X149299524Y-115775144D02*
X149347143Y-115822764D01*
X149347143Y-115822764D02*
X149442381Y-115870383D01*
X149442381Y-115870383D02*
X149632857Y-115870383D01*
X149632857Y-115870383D02*
X149728095Y-115822764D01*
X149728095Y-115822764D02*
X149775714Y-115775144D01*
X149775714Y-115775144D02*
X149823333Y-115679906D01*
X149823333Y-115679906D02*
X149823333Y-115441811D01*
X149823333Y-115441811D02*
X149775714Y-115346573D01*
X149775714Y-115346573D02*
X149728095Y-115298954D01*
X149728095Y-115298954D02*
X149632857Y-115251335D01*
X149632857Y-115251335D02*
X149442381Y-115251335D01*
X149442381Y-115251335D02*
X149347143Y-115298954D01*
X149347143Y-115298954D02*
X149299524Y-115346573D01*
X149299524Y-115346573D02*
X149251905Y-115441811D01*
X147156667Y-107272764D02*
X147299524Y-107320383D01*
X147299524Y-107320383D02*
X147537619Y-107320383D01*
X147537619Y-107320383D02*
X147632857Y-107272764D01*
X147632857Y-107272764D02*
X147680476Y-107225144D01*
X147680476Y-107225144D02*
X147728095Y-107129906D01*
X147728095Y-107129906D02*
X147728095Y-107034668D01*
X147728095Y-107034668D02*
X147680476Y-106939430D01*
X147680476Y-106939430D02*
X147632857Y-106891811D01*
X147632857Y-106891811D02*
X147537619Y-106844192D01*
X147537619Y-106844192D02*
X147347143Y-106796573D01*
X147347143Y-106796573D02*
X147251905Y-106748954D01*
X147251905Y-106748954D02*
X147204286Y-106701335D01*
X147204286Y-106701335D02*
X147156667Y-106606097D01*
X147156667Y-106606097D02*
X147156667Y-106510859D01*
X147156667Y-106510859D02*
X147204286Y-106415621D01*
X147204286Y-106415621D02*
X147251905Y-106368002D01*
X147251905Y-106368002D02*
X147347143Y-106320383D01*
X147347143Y-106320383D02*
X147585238Y-106320383D01*
X147585238Y-106320383D02*
X147728095Y-106368002D01*
X148061429Y-106320383D02*
X148299524Y-107320383D01*
X148299524Y-107320383D02*
X148490000Y-106606097D01*
X148490000Y-106606097D02*
X148680476Y-107320383D01*
X148680476Y-107320383D02*
X148918572Y-106320383D01*
X149775714Y-106320383D02*
X149299524Y-106320383D01*
X149299524Y-106320383D02*
X149251905Y-106796573D01*
X149251905Y-106796573D02*
X149299524Y-106748954D01*
X149299524Y-106748954D02*
X149394762Y-106701335D01*
X149394762Y-106701335D02*
X149632857Y-106701335D01*
X149632857Y-106701335D02*
X149728095Y-106748954D01*
X149728095Y-106748954D02*
X149775714Y-106796573D01*
X149775714Y-106796573D02*
X149823333Y-106891811D01*
X149823333Y-106891811D02*
X149823333Y-107129906D01*
X149823333Y-107129906D02*
X149775714Y-107225144D01*
X149775714Y-107225144D02*
X149728095Y-107272764D01*
X149728095Y-107272764D02*
X149632857Y-107320383D01*
X149632857Y-107320383D02*
X149394762Y-107320383D01*
X149394762Y-107320383D02*
X149299524Y-107272764D01*
X149299524Y-107272764D02*
X149251905Y-107225144D01*
X147156667Y-98722764D02*
X147299524Y-98770383D01*
X147299524Y-98770383D02*
X147537619Y-98770383D01*
X147537619Y-98770383D02*
X147632857Y-98722764D01*
X147632857Y-98722764D02*
X147680476Y-98675144D01*
X147680476Y-98675144D02*
X147728095Y-98579906D01*
X147728095Y-98579906D02*
X147728095Y-98484668D01*
X147728095Y-98484668D02*
X147680476Y-98389430D01*
X147680476Y-98389430D02*
X147632857Y-98341811D01*
X147632857Y-98341811D02*
X147537619Y-98294192D01*
X147537619Y-98294192D02*
X147347143Y-98246573D01*
X147347143Y-98246573D02*
X147251905Y-98198954D01*
X147251905Y-98198954D02*
X147204286Y-98151335D01*
X147204286Y-98151335D02*
X147156667Y-98056097D01*
X147156667Y-98056097D02*
X147156667Y-97960859D01*
X147156667Y-97960859D02*
X147204286Y-97865621D01*
X147204286Y-97865621D02*
X147251905Y-97818002D01*
X147251905Y-97818002D02*
X147347143Y-97770383D01*
X147347143Y-97770383D02*
X147585238Y-97770383D01*
X147585238Y-97770383D02*
X147728095Y-97818002D01*
X148061429Y-97770383D02*
X148299524Y-98770383D01*
X148299524Y-98770383D02*
X148490000Y-98056097D01*
X148490000Y-98056097D02*
X148680476Y-98770383D01*
X148680476Y-98770383D02*
X148918572Y-97770383D01*
X149728095Y-98103716D02*
X149728095Y-98770383D01*
X149490000Y-97722764D02*
X149251905Y-98437049D01*
X149251905Y-98437049D02*
X149870952Y-98437049D01*
X136606667Y-115822764D02*
X136749524Y-115870383D01*
X136749524Y-115870383D02*
X136987619Y-115870383D01*
X136987619Y-115870383D02*
X137082857Y-115822764D01*
X137082857Y-115822764D02*
X137130476Y-115775144D01*
X137130476Y-115775144D02*
X137178095Y-115679906D01*
X137178095Y-115679906D02*
X137178095Y-115584668D01*
X137178095Y-115584668D02*
X137130476Y-115489430D01*
X137130476Y-115489430D02*
X137082857Y-115441811D01*
X137082857Y-115441811D02*
X136987619Y-115394192D01*
X136987619Y-115394192D02*
X136797143Y-115346573D01*
X136797143Y-115346573D02*
X136701905Y-115298954D01*
X136701905Y-115298954D02*
X136654286Y-115251335D01*
X136654286Y-115251335D02*
X136606667Y-115156097D01*
X136606667Y-115156097D02*
X136606667Y-115060859D01*
X136606667Y-115060859D02*
X136654286Y-114965621D01*
X136654286Y-114965621D02*
X136701905Y-114918002D01*
X136701905Y-114918002D02*
X136797143Y-114870383D01*
X136797143Y-114870383D02*
X137035238Y-114870383D01*
X137035238Y-114870383D02*
X137178095Y-114918002D01*
X137511429Y-114870383D02*
X137749524Y-115870383D01*
X137749524Y-115870383D02*
X137940000Y-115156097D01*
X137940000Y-115156097D02*
X138130476Y-115870383D01*
X138130476Y-115870383D02*
X138368572Y-114870383D01*
X138654286Y-114870383D02*
X139273333Y-114870383D01*
X139273333Y-114870383D02*
X138940000Y-115251335D01*
X138940000Y-115251335D02*
X139082857Y-115251335D01*
X139082857Y-115251335D02*
X139178095Y-115298954D01*
X139178095Y-115298954D02*
X139225714Y-115346573D01*
X139225714Y-115346573D02*
X139273333Y-115441811D01*
X139273333Y-115441811D02*
X139273333Y-115679906D01*
X139273333Y-115679906D02*
X139225714Y-115775144D01*
X139225714Y-115775144D02*
X139178095Y-115822764D01*
X139178095Y-115822764D02*
X139082857Y-115870383D01*
X139082857Y-115870383D02*
X138797143Y-115870383D01*
X138797143Y-115870383D02*
X138701905Y-115822764D01*
X138701905Y-115822764D02*
X138654286Y-115775144D01*
X136606667Y-107272764D02*
X136749524Y-107320383D01*
X136749524Y-107320383D02*
X136987619Y-107320383D01*
X136987619Y-107320383D02*
X137082857Y-107272764D01*
X137082857Y-107272764D02*
X137130476Y-107225144D01*
X137130476Y-107225144D02*
X137178095Y-107129906D01*
X137178095Y-107129906D02*
X137178095Y-107034668D01*
X137178095Y-107034668D02*
X137130476Y-106939430D01*
X137130476Y-106939430D02*
X137082857Y-106891811D01*
X137082857Y-106891811D02*
X136987619Y-106844192D01*
X136987619Y-106844192D02*
X136797143Y-106796573D01*
X136797143Y-106796573D02*
X136701905Y-106748954D01*
X136701905Y-106748954D02*
X136654286Y-106701335D01*
X136654286Y-106701335D02*
X136606667Y-106606097D01*
X136606667Y-106606097D02*
X136606667Y-106510859D01*
X136606667Y-106510859D02*
X136654286Y-106415621D01*
X136654286Y-106415621D02*
X136701905Y-106368002D01*
X136701905Y-106368002D02*
X136797143Y-106320383D01*
X136797143Y-106320383D02*
X137035238Y-106320383D01*
X137035238Y-106320383D02*
X137178095Y-106368002D01*
X137511429Y-106320383D02*
X137749524Y-107320383D01*
X137749524Y-107320383D02*
X137940000Y-106606097D01*
X137940000Y-106606097D02*
X138130476Y-107320383D01*
X138130476Y-107320383D02*
X138368572Y-106320383D01*
X138701905Y-106415621D02*
X138749524Y-106368002D01*
X138749524Y-106368002D02*
X138844762Y-106320383D01*
X138844762Y-106320383D02*
X139082857Y-106320383D01*
X139082857Y-106320383D02*
X139178095Y-106368002D01*
X139178095Y-106368002D02*
X139225714Y-106415621D01*
X139225714Y-106415621D02*
X139273333Y-106510859D01*
X139273333Y-106510859D02*
X139273333Y-106606097D01*
X139273333Y-106606097D02*
X139225714Y-106748954D01*
X139225714Y-106748954D02*
X138654286Y-107320383D01*
X138654286Y-107320383D02*
X139273333Y-107320383D01*
X136606667Y-98722764D02*
X136749524Y-98770383D01*
X136749524Y-98770383D02*
X136987619Y-98770383D01*
X136987619Y-98770383D02*
X137082857Y-98722764D01*
X137082857Y-98722764D02*
X137130476Y-98675144D01*
X137130476Y-98675144D02*
X137178095Y-98579906D01*
X137178095Y-98579906D02*
X137178095Y-98484668D01*
X137178095Y-98484668D02*
X137130476Y-98389430D01*
X137130476Y-98389430D02*
X137082857Y-98341811D01*
X137082857Y-98341811D02*
X136987619Y-98294192D01*
X136987619Y-98294192D02*
X136797143Y-98246573D01*
X136797143Y-98246573D02*
X136701905Y-98198954D01*
X136701905Y-98198954D02*
X136654286Y-98151335D01*
X136654286Y-98151335D02*
X136606667Y-98056097D01*
X136606667Y-98056097D02*
X136606667Y-97960859D01*
X136606667Y-97960859D02*
X136654286Y-97865621D01*
X136654286Y-97865621D02*
X136701905Y-97818002D01*
X136701905Y-97818002D02*
X136797143Y-97770383D01*
X136797143Y-97770383D02*
X137035238Y-97770383D01*
X137035238Y-97770383D02*
X137178095Y-97818002D01*
X137511429Y-97770383D02*
X137749524Y-98770383D01*
X137749524Y-98770383D02*
X137940000Y-98056097D01*
X137940000Y-98056097D02*
X138130476Y-98770383D01*
X138130476Y-98770383D02*
X138368572Y-97770383D01*
X139273333Y-98770383D02*
X138701905Y-98770383D01*
X138987619Y-98770383D02*
X138987619Y-97770383D01*
X138987619Y-97770383D02*
X138892381Y-97913240D01*
X138892381Y-97913240D02*
X138797143Y-98008478D01*
X138797143Y-98008478D02*
X138701905Y-98056097D01*
X147275714Y-89044819D02*
X147275714Y-88044819D01*
X147275714Y-88044819D02*
X147513809Y-88044819D01*
X147513809Y-88044819D02*
X147656666Y-88092438D01*
X147656666Y-88092438D02*
X147751904Y-88187676D01*
X147751904Y-88187676D02*
X147799523Y-88282914D01*
X147799523Y-88282914D02*
X147847142Y-88473390D01*
X147847142Y-88473390D02*
X147847142Y-88616247D01*
X147847142Y-88616247D02*
X147799523Y-88806723D01*
X147799523Y-88806723D02*
X147751904Y-88901961D01*
X147751904Y-88901961D02*
X147656666Y-88997200D01*
X147656666Y-88997200D02*
X147513809Y-89044819D01*
X147513809Y-89044819D02*
X147275714Y-89044819D01*
X148799523Y-89044819D02*
X148228095Y-89044819D01*
X148513809Y-89044819D02*
X148513809Y-88044819D01*
X148513809Y-88044819D02*
X148418571Y-88187676D01*
X148418571Y-88187676D02*
X148323333Y-88282914D01*
X148323333Y-88282914D02*
X148228095Y-88330533D01*
X149418571Y-88044819D02*
X149513809Y-88044819D01*
X149513809Y-88044819D02*
X149609047Y-88092438D01*
X149609047Y-88092438D02*
X149656666Y-88140057D01*
X149656666Y-88140057D02*
X149704285Y-88235295D01*
X149704285Y-88235295D02*
X149751904Y-88425771D01*
X149751904Y-88425771D02*
X149751904Y-88663866D01*
X149751904Y-88663866D02*
X149704285Y-88854342D01*
X149704285Y-88854342D02*
X149656666Y-88949580D01*
X149656666Y-88949580D02*
X149609047Y-88997200D01*
X149609047Y-88997200D02*
X149513809Y-89044819D01*
X149513809Y-89044819D02*
X149418571Y-89044819D01*
X149418571Y-89044819D02*
X149323333Y-88997200D01*
X149323333Y-88997200D02*
X149275714Y-88949580D01*
X149275714Y-88949580D02*
X149228095Y-88854342D01*
X149228095Y-88854342D02*
X149180476Y-88663866D01*
X149180476Y-88663866D02*
X149180476Y-88425771D01*
X149180476Y-88425771D02*
X149228095Y-88235295D01*
X149228095Y-88235295D02*
X149275714Y-88140057D01*
X149275714Y-88140057D02*
X149323333Y-88092438D01*
X149323333Y-88092438D02*
X149418571Y-88044819D01*
D13*
%TO.C,D7*%
X140268136Y-72665000D02*
G75*
G02*
X134920000Y-73129830I-2788136J1080000D01*
G01*
X139734684Y-72665000D02*
G75*
G02*
X135225316Y-72665000I-2254684J1080000D01*
G01*
X135225316Y-70505000D02*
G75*
G02*
X139734684Y-70505000I2254684J-1080000D01*
G01*
X134920000Y-70040170D02*
G75*
G02*
X140268136Y-70505000I2560000J-1544830D01*
G01*
X134920000Y-72665000D02*
X134920000Y-73130000D01*
X134920000Y-70040000D02*
X134920000Y-70505000D01*
%TO.C,D8*%
X151308136Y-72665000D02*
G75*
G02*
X145960000Y-73129830I-2788136J1080000D01*
G01*
X150774684Y-72665000D02*
G75*
G02*
X146265316Y-72665000I-2254684J1080000D01*
G01*
X146265316Y-70505000D02*
G75*
G02*
X150774684Y-70505000I2254684J-1080000D01*
G01*
X145960000Y-70040170D02*
G75*
G02*
X151308136Y-70505000I2560000J-1544830D01*
G01*
X145960000Y-72665000D02*
X145960000Y-73130000D01*
X145960000Y-70040000D02*
X145960000Y-70505000D01*
%TO.C,D9*%
X162288136Y-72665000D02*
G75*
G02*
X156940000Y-73129830I-2788136J1080000D01*
G01*
X161754684Y-72665000D02*
G75*
G02*
X157245316Y-72665000I-2254684J1080000D01*
G01*
X157245316Y-70505000D02*
G75*
G02*
X161754684Y-70505000I2254684J-1080000D01*
G01*
X156940000Y-70040170D02*
G75*
G02*
X162288136Y-70505000I2560000J-1544830D01*
G01*
X156940000Y-72665000D02*
X156940000Y-73130000D01*
X156940000Y-70040000D02*
X156940000Y-70505000D01*
%TO.C,D4*%
X162273136Y-61665000D02*
G75*
G02*
X156925000Y-62129830I-2788136J1080000D01*
G01*
X161739684Y-61665000D02*
G75*
G02*
X157230316Y-61665000I-2254684J1080000D01*
G01*
X157230316Y-59505000D02*
G75*
G02*
X161739684Y-59505000I2254684J-1080000D01*
G01*
X156925000Y-59040170D02*
G75*
G02*
X162273136Y-59505000I2560000J-1544830D01*
G01*
X156925000Y-61665000D02*
X156925000Y-62130000D01*
X156925000Y-59040000D02*
X156925000Y-59505000D01*
%TO.C,D2*%
X151268136Y-50665000D02*
G75*
G02*
X145920000Y-51129830I-2788136J1080000D01*
G01*
X150734684Y-50665000D02*
G75*
G02*
X146225316Y-50665000I-2254684J1080000D01*
G01*
X146225316Y-48505000D02*
G75*
G02*
X150734684Y-48505000I2254684J-1080000D01*
G01*
X145920000Y-48040170D02*
G75*
G02*
X151268136Y-48505000I2560000J-1544830D01*
G01*
X145920000Y-50665000D02*
X145920000Y-51130000D01*
X145920000Y-48040000D02*
X145920000Y-48505000D01*
%TO.C,D5*%
X151268136Y-61665000D02*
G75*
G02*
X145920000Y-62129830I-2788136J1080000D01*
G01*
X150734684Y-61665000D02*
G75*
G02*
X146225316Y-61665000I-2254684J1080000D01*
G01*
X146225316Y-59505000D02*
G75*
G02*
X150734684Y-59505000I2254684J-1080000D01*
G01*
X145920000Y-59040170D02*
G75*
G02*
X151268136Y-59505000I2560000J-1544830D01*
G01*
X145920000Y-61665000D02*
X145920000Y-62130000D01*
X145920000Y-59040000D02*
X145920000Y-59505000D01*
%TO.C,D3*%
X162268136Y-50665000D02*
G75*
G02*
X156920000Y-51129830I-2788136J1080000D01*
G01*
X161734684Y-50665000D02*
G75*
G02*
X157225316Y-50665000I-2254684J1080000D01*
G01*
X157225316Y-48505000D02*
G75*
G02*
X161734684Y-48505000I2254684J-1080000D01*
G01*
X156920000Y-48040170D02*
G75*
G02*
X162268136Y-48505000I2560000J-1544830D01*
G01*
X156920000Y-50665000D02*
X156920000Y-51130000D01*
X156920000Y-48040000D02*
X156920000Y-48505000D01*
%TO.C,D6*%
X140268136Y-61665000D02*
G75*
G02*
X134920000Y-62129830I-2788136J1080000D01*
G01*
X139734684Y-61665000D02*
G75*
G02*
X135225316Y-61665000I-2254684J1080000D01*
G01*
X135225316Y-59505000D02*
G75*
G02*
X139734684Y-59505000I2254684J-1080000D01*
G01*
X134920000Y-59040170D02*
G75*
G02*
X140268136Y-59505000I2560000J-1544830D01*
G01*
X134920000Y-61665000D02*
X134920000Y-62130000D01*
X134920000Y-59040000D02*
X134920000Y-59505000D01*
%TO.C,J1*%
X143820000Y-36450000D02*
X143820000Y-38150000D01*
X153160000Y-36450000D02*
X153160000Y-38150000D01*
%TO.C,D1*%
X134930000Y-48005000D02*
X134930000Y-48470000D01*
X134930000Y-50630000D02*
X134930000Y-51095000D01*
X134930000Y-48005170D02*
G75*
G02*
X140278136Y-48470000I2560000J-1544830D01*
G01*
X135235316Y-48470000D02*
G75*
G02*
X139744684Y-48470000I2254684J-1080000D01*
G01*
X139744684Y-50630000D02*
G75*
G02*
X135235316Y-50630000I-2254684J1080000D01*
G01*
X140278136Y-50630000D02*
G75*
G02*
X134930000Y-51094830I-2788136J1080000D01*
G01*
%TO.C,U1*%
X130650000Y-85195000D02*
X166330000Y-85195000D01*
X166330000Y-85195000D02*
X166330000Y-79895000D01*
X130650000Y-83545000D02*
X130650000Y-85195000D01*
X130650000Y-79895000D02*
X130650000Y-81545000D01*
X166330000Y-79895000D02*
X130650000Y-79895000D01*
X130650000Y-81545000D02*
G75*
G02*
X130650000Y-83545000I0J-1000000D01*
G01*
%TO.C,SW9*%
X155540000Y-118915564D02*
X155540000Y-120415564D01*
X156790000Y-122915564D02*
X161290000Y-122915564D01*
X161290000Y-116415564D02*
X156790000Y-116415564D01*
X162540000Y-120415564D02*
X162540000Y-118915564D01*
%TO.C,SW8*%
X155540000Y-110365564D02*
X155540000Y-111865564D01*
X156790000Y-114365564D02*
X161290000Y-114365564D01*
X161290000Y-107865564D02*
X156790000Y-107865564D01*
X162540000Y-111865564D02*
X162540000Y-110365564D01*
%TO.C,SW7*%
X155540000Y-101815564D02*
X155540000Y-103315564D01*
X156790000Y-105815564D02*
X161290000Y-105815564D01*
X161290000Y-99315564D02*
X156790000Y-99315564D01*
X162540000Y-103315564D02*
X162540000Y-101815564D01*
%TO.C,SW6*%
X144990000Y-118915564D02*
X144990000Y-120415564D01*
X146240000Y-122915564D02*
X150740000Y-122915564D01*
X150740000Y-116415564D02*
X146240000Y-116415564D01*
X151990000Y-120415564D02*
X151990000Y-118915564D01*
%TO.C,SW5*%
X144990000Y-110365564D02*
X144990000Y-111865564D01*
X146240000Y-114365564D02*
X150740000Y-114365564D01*
X150740000Y-107865564D02*
X146240000Y-107865564D01*
X151990000Y-111865564D02*
X151990000Y-110365564D01*
%TO.C,SW4*%
X144990000Y-101815564D02*
X144990000Y-103315564D01*
X146240000Y-105815564D02*
X150740000Y-105815564D01*
X150740000Y-99315564D02*
X146240000Y-99315564D01*
X151990000Y-103315564D02*
X151990000Y-101815564D01*
%TO.C,SW3*%
X134440000Y-118915564D02*
X134440000Y-120415564D01*
X135690000Y-122915564D02*
X140190000Y-122915564D01*
X140190000Y-116415564D02*
X135690000Y-116415564D01*
X141440000Y-120415564D02*
X141440000Y-118915564D01*
%TO.C,SW2*%
X134440000Y-110365564D02*
X134440000Y-111865564D01*
X135690000Y-114365564D02*
X140190000Y-114365564D01*
X140190000Y-107865564D02*
X135690000Y-107865564D01*
X141440000Y-111865564D02*
X141440000Y-110365564D01*
%TO.C,SW1*%
X134440000Y-101815564D02*
X134440000Y-103315564D01*
X135690000Y-105815564D02*
X140190000Y-105815564D01*
X140190000Y-99315564D02*
X135690000Y-99315564D01*
X141440000Y-103315564D02*
X141440000Y-101815564D01*
%TO.C,D10*%
X145930000Y-91005000D02*
X145930000Y-91470000D01*
X145930000Y-93630000D02*
X145930000Y-94095000D01*
X145930000Y-91005170D02*
G75*
G02*
X151278136Y-91470000I2560000J-1544830D01*
G01*
X146235316Y-91470000D02*
G75*
G02*
X150744684Y-91470000I2254684J-1080000D01*
G01*
X150744684Y-93630000D02*
G75*
G02*
X146235316Y-93630000I-2254684J1080000D01*
G01*
X151278136Y-93630000D02*
G75*
G02*
X145930000Y-94094830I-2788136J1080000D01*
G01*
%TD*%
M02*
