%TF.GenerationSoftware,KiCad,Pcbnew,9.0.6*%
%TF.CreationDate,2025-12-09T19:02:22+01:00*%
%TF.ProjectId,tictactoe,74696374-6163-4746-9f65-2e6b69636164,rev?*%
%TF.SameCoordinates,Original*%
%TF.FileFunction,Copper,L1,Top*%
%TF.FilePolarity,Positive*%
%FSLAX46Y46*%
G04 Gerber Fmt 4.6, Leading zero omitted, Abs format (unit mm)*
G04 Created by KiCad (PCBNEW 9.0.6) date 2025-12-09 19:02:22*
%MOMM*%
%LPD*%
G01*
G04 APERTURE LIST*
G04 Aperture macros list*
%AMRoundRect*
0 Rectangle with rounded corners*
0 $1 Rounding radius*
0 $2 $3 $4 $5 $6 $7 $8 $9 X,Y pos of 4 corners*
0 Add a 4 corners polygon primitive as box body*
4,1,4,$2,$3,$4,$5,$6,$7,$8,$9,$2,$3,0*
0 Add four circle primitives for the rounded corners*
1,1,$1+$1,$2,$3*
1,1,$1+$1,$4,$5*
1,1,$1+$1,$6,$7*
1,1,$1+$1,$8,$9*
0 Add four rect primitives between the rounded corners*
20,1,$1+$1,$2,$3,$4,$5,0*
20,1,$1+$1,$4,$5,$6,$7,0*
20,1,$1+$1,$6,$7,$8,$9,0*
20,1,$1+$1,$8,$9,$2,$3,0*%
G04 Aperture macros list end*
%TA.AperFunction,ComponentPad*%
%ADD10O,1.070000X1.800000*%
%TD*%
%TA.AperFunction,ComponentPad*%
%ADD11R,1.070000X1.800000*%
%TD*%
%TA.AperFunction,HeatsinkPad*%
%ADD12O,1.100000X1.700000*%
%TD*%
%TA.AperFunction,SMDPad,CuDef*%
%ADD13RoundRect,0.200000X0.200000X0.400000X-0.200000X0.400000X-0.200000X-0.400000X0.200000X-0.400000X0*%
%TD*%
%TA.AperFunction,SMDPad,CuDef*%
%ADD14RoundRect,0.190000X0.190000X0.410000X-0.190000X0.410000X-0.190000X-0.410000X0.190000X-0.410000X0*%
%TD*%
%TA.AperFunction,SMDPad,CuDef*%
%ADD15RoundRect,0.175000X-0.175000X-0.425000X0.175000X-0.425000X0.175000X0.425000X-0.175000X0.425000X0*%
%TD*%
%TA.AperFunction,SMDPad,CuDef*%
%ADD16RoundRect,0.200000X-0.200000X-0.400000X0.200000X-0.400000X0.200000X0.400000X-0.200000X0.400000X0*%
%TD*%
%TA.AperFunction,SMDPad,CuDef*%
%ADD17RoundRect,0.190000X-0.190000X-0.410000X0.190000X-0.410000X0.190000X0.410000X-0.190000X0.410000X0*%
%TD*%
%TA.AperFunction,SMDPad,CuDef*%
%ADD18RoundRect,0.175000X0.175000X0.425000X-0.175000X0.425000X-0.175000X-0.425000X0.175000X-0.425000X0*%
%TD*%
%TA.AperFunction,ComponentPad*%
%ADD19RoundRect,0.250000X0.550000X-0.550000X0.550000X0.550000X-0.550000X0.550000X-0.550000X-0.550000X0*%
%TD*%
%TA.AperFunction,ComponentPad*%
%ADD20C,1.600000*%
%TD*%
%TA.AperFunction,ComponentPad*%
%ADD21C,2.000000*%
%TD*%
%TA.AperFunction,Conductor*%
%ADD22C,0.200000*%
%TD*%
G04 APERTURE END LIST*
D10*
%TO.P,D7,4,DI*%
%TO.N,Net-(D6-DO)*%
X139385000Y-71585000D03*
%TO.P,D7,3,VDD*%
%TO.N,+5V*%
X138115000Y-71585000D03*
%TO.P,D7,2,GND*%
%TO.N,GND*%
X136845000Y-71585000D03*
D11*
%TO.P,D7,1,DO*%
%TO.N,Net-(D7-DO)*%
X135575000Y-71585000D03*
%TD*%
D10*
%TO.P,D8,4,DI*%
%TO.N,Net-(D7-DO)*%
X150425000Y-71585000D03*
%TO.P,D8,3,VDD*%
%TO.N,+5V*%
X149155000Y-71585000D03*
%TO.P,D8,2,GND*%
%TO.N,GND*%
X147885000Y-71585000D03*
D11*
%TO.P,D8,1,DO*%
%TO.N,Net-(D8-DO)*%
X146615000Y-71585000D03*
%TD*%
D10*
%TO.P,D9,4,DI*%
%TO.N,Net-(D8-DO)*%
X161405000Y-71585000D03*
%TO.P,D9,3,VDD*%
%TO.N,+5V*%
X160135000Y-71585000D03*
%TO.P,D9,2,GND*%
%TO.N,GND*%
X158865000Y-71585000D03*
D11*
%TO.P,D9,1,DO*%
%TO.N,unconnected-(D9-DO-Pad1)*%
X157595000Y-71585000D03*
%TD*%
D10*
%TO.P,D4,4,DI*%
%TO.N,Net-(D3-DO)*%
X161390000Y-60585000D03*
%TO.P,D4,3,VDD*%
%TO.N,+5V*%
X160120000Y-60585000D03*
%TO.P,D4,2,GND*%
%TO.N,GND*%
X158850000Y-60585000D03*
D11*
%TO.P,D4,1,DO*%
%TO.N,Net-(D4-DO)*%
X157580000Y-60585000D03*
%TD*%
D10*
%TO.P,D2,4,DI*%
%TO.N,Net-(D1-DO)*%
X150385000Y-49585000D03*
%TO.P,D2,3,VDD*%
%TO.N,+5V*%
X149115000Y-49585000D03*
%TO.P,D2,2,GND*%
%TO.N,GND*%
X147845000Y-49585000D03*
D11*
%TO.P,D2,1,DO*%
%TO.N,Net-(D2-DO)*%
X146575000Y-49585000D03*
%TD*%
D10*
%TO.P,D5,4,DI*%
%TO.N,Net-(D4-DO)*%
X150385000Y-60585000D03*
%TO.P,D5,3,VDD*%
%TO.N,+5V*%
X149115000Y-60585000D03*
%TO.P,D5,2,GND*%
%TO.N,GND*%
X147845000Y-60585000D03*
D11*
%TO.P,D5,1,DO*%
%TO.N,Net-(D5-DO)*%
X146575000Y-60585000D03*
%TD*%
D10*
%TO.P,D3,4,DI*%
%TO.N,Net-(D2-DO)*%
X161385000Y-49585000D03*
%TO.P,D3,3,VDD*%
%TO.N,+5V*%
X160115000Y-49585000D03*
%TO.P,D3,2,GND*%
%TO.N,GND*%
X158845000Y-49585000D03*
D11*
%TO.P,D3,1,DO*%
%TO.N,Net-(D3-DO)*%
X157575000Y-49585000D03*
%TD*%
D10*
%TO.P,D6,4,DI*%
%TO.N,Net-(D5-DO)*%
X139385000Y-60585000D03*
%TO.P,D6,3,VDD*%
%TO.N,+5V*%
X138115000Y-60585000D03*
%TO.P,D6,2,GND*%
%TO.N,GND*%
X136845000Y-60585000D03*
D11*
%TO.P,D6,1,DO*%
%TO.N,Net-(D6-DO)*%
X135575000Y-60585000D03*
%TD*%
D12*
%TO.P,J1,S1,SHIELD*%
%TO.N,GND*%
X144170000Y-35400000D03*
X144170000Y-39200000D03*
X152810000Y-35400000D03*
X152810000Y-39200000D03*
D13*
%TO.P,J1,B12,GND*%
X151240000Y-39280000D03*
D14*
%TO.P,J1,B9,VBUS*%
%TO.N,+5V*%
X150010000Y-39280000D03*
D15*
%TO.P,J1,B5,CC2*%
%TO.N,unconnected-(J1-CC2-PadB5)*%
X147990000Y-39280000D03*
D16*
%TO.P,J1,A12,GND*%
%TO.N,GND*%
X145740000Y-39280000D03*
D17*
%TO.P,J1,A9,VBUS*%
%TO.N,+5V*%
X146970000Y-39280000D03*
D18*
%TO.P,J1,A5,CC1*%
%TO.N,unconnected-(J1-CC1-PadA5)*%
X148990000Y-39280000D03*
%TD*%
D11*
%TO.P,D1,1,DO*%
%TO.N,Net-(D1-DO)*%
X135585000Y-49550000D03*
D10*
%TO.P,D1,2,GND*%
%TO.N,GND*%
X136855000Y-49550000D03*
%TO.P,D1,3,VDD*%
%TO.N,+5V*%
X138125000Y-49550000D03*
%TO.P,D1,4,DI*%
%TO.N,display*%
X139395000Y-49550000D03*
%TD*%
D19*
%TO.P,U1,1,~{RESET}/PC6*%
%TO.N,Net-(U1-~{RESET}{slash}PC6)*%
X131980000Y-86355000D03*
D20*
%TO.P,U1,2,PD0*%
%TO.N,Net-(U1-PD0)*%
X134520000Y-86355000D03*
%TO.P,U1,3,PD1*%
%TO.N,Net-(U1-PD1)*%
X137060000Y-86355000D03*
%TO.P,U1,4,PD2*%
%TO.N,Net-(U1-PD2)*%
X139600000Y-86355000D03*
%TO.P,U1,5,PD3*%
%TO.N,Net-(U1-PD3)*%
X142140000Y-86355000D03*
%TO.P,U1,6,PD4*%
%TO.N,Net-(U1-PD4)*%
X144680000Y-86355000D03*
%TO.P,U1,7,VCC*%
%TO.N,+5V*%
X147220000Y-86355000D03*
%TO.P,U1,8,GND*%
%TO.N,GND*%
X149760000Y-86355000D03*
%TO.P,U1,9,XTAL1/PB6*%
%TO.N,Net-(U1-XTAL1{slash}PB6)*%
X152300000Y-86355000D03*
%TO.P,U1,10,XTAL2/PB7*%
%TO.N,Net-(U1-XTAL2{slash}PB7)*%
X154840000Y-86355000D03*
%TO.P,U1,11,PD5*%
%TO.N,Net-(U1-PD5)*%
X157380000Y-86355000D03*
%TO.P,U1,12,PD6*%
%TO.N,Net-(D10-RA)*%
X159920000Y-86355000D03*
%TO.P,U1,13,PD7*%
%TO.N,Net-(D10-GA)*%
X162460000Y-86355000D03*
%TO.P,U1,14,PB0*%
%TO.N,Net-(D10-BA)*%
X165000000Y-86355000D03*
%TO.P,U1,15,PB1*%
%TO.N,unconnected-(U1-PB1-Pad15)*%
X165000000Y-78735000D03*
%TO.P,U1,16,PB2*%
%TO.N,unconnected-(U1-PB2-Pad16)*%
X162460000Y-78735000D03*
%TO.P,U1,17,PB3*%
%TO.N,unconnected-(U1-PB3-Pad17)*%
X159920000Y-78735000D03*
%TO.P,U1,18,PB4*%
%TO.N,unconnected-(U1-PB4-Pad18)*%
X157380000Y-78735000D03*
%TO.P,U1,19,PB5*%
%TO.N,unconnected-(U1-PB5-Pad19)*%
X154840000Y-78735000D03*
%TO.P,U1,20,AVCC*%
%TO.N,+5V*%
X152300000Y-78735000D03*
%TO.P,U1,21,AREF*%
%TO.N,unconnected-(U1-AREF-Pad21)*%
X149760000Y-78735000D03*
%TO.P,U1,22,GND*%
%TO.N,GND*%
X147220000Y-78735000D03*
%TO.P,U1,23,PC0*%
%TO.N,unconnected-(U1-PC0-Pad23)*%
X144680000Y-78735000D03*
%TO.P,U1,24,PC1*%
%TO.N,unconnected-(U1-PC1-Pad24)*%
X142140000Y-78735000D03*
%TO.P,U1,25,PC2*%
%TO.N,unconnected-(U1-PC2-Pad25)*%
X139600000Y-78735000D03*
%TO.P,U1,26,PC3*%
%TO.N,display*%
X137060000Y-78735000D03*
%TO.P,U1,27,PC4*%
%TO.N,unconnected-(U1-PC4-Pad27)*%
X134520000Y-78735000D03*
%TO.P,U1,28,PC5*%
%TO.N,unconnected-(U1-PC5-Pad28)*%
X131980000Y-78735000D03*
%TD*%
D21*
%TO.P,SW9,1,1*%
%TO.N,Net-(U1-PD5)*%
X155790000Y-117415564D03*
X162290000Y-117415564D03*
%TO.P,SW9,2,2*%
%TO.N,GND*%
X155790000Y-121915564D03*
X162290000Y-121915564D03*
%TD*%
%TO.P,SW8,1,1*%
%TO.N,Net-(U1-XTAL2{slash}PB7)*%
X155790000Y-108865564D03*
X162290000Y-108865564D03*
%TO.P,SW8,2,2*%
%TO.N,GND*%
X155790000Y-113365564D03*
X162290000Y-113365564D03*
%TD*%
%TO.P,SW7,1,1*%
%TO.N,Net-(U1-XTAL1{slash}PB6)*%
X155790000Y-100315564D03*
X162290000Y-100315564D03*
%TO.P,SW7,2,2*%
%TO.N,GND*%
X155790000Y-104815564D03*
X162290000Y-104815564D03*
%TD*%
%TO.P,SW6,1,1*%
%TO.N,Net-(U1-PD4)*%
X145240000Y-117415564D03*
X151740000Y-117415564D03*
%TO.P,SW6,2,2*%
%TO.N,GND*%
X145240000Y-121915564D03*
X151740000Y-121915564D03*
%TD*%
%TO.P,SW5,1,1*%
%TO.N,Net-(U1-PD3)*%
X145240000Y-108865564D03*
X151740000Y-108865564D03*
%TO.P,SW5,2,2*%
%TO.N,GND*%
X145240000Y-113365564D03*
X151740000Y-113365564D03*
%TD*%
%TO.P,SW4,1,1*%
%TO.N,Net-(U1-PD2)*%
X145240000Y-100315564D03*
X151740000Y-100315564D03*
%TO.P,SW4,2,2*%
%TO.N,GND*%
X145240000Y-104815564D03*
X151740000Y-104815564D03*
%TD*%
%TO.P,SW3,1,1*%
%TO.N,Net-(U1-PD1)*%
X134690000Y-117415564D03*
X141190000Y-117415564D03*
%TO.P,SW3,2,2*%
%TO.N,GND*%
X134690000Y-121915564D03*
X141190000Y-121915564D03*
%TD*%
%TO.P,SW2,1,1*%
%TO.N,Net-(U1-PD0)*%
X134690000Y-108865564D03*
X141190000Y-108865564D03*
%TO.P,SW2,2,2*%
%TO.N,GND*%
X134690000Y-113365564D03*
X141190000Y-113365564D03*
%TD*%
%TO.P,SW1,1,1*%
%TO.N,Net-(U1-~{RESET}{slash}PC6)*%
X134690000Y-100315564D03*
X141190000Y-100315564D03*
%TO.P,SW1,2,2*%
%TO.N,GND*%
X134690000Y-104815564D03*
X141190000Y-104815564D03*
%TD*%
D11*
%TO.P,D10,1,RA*%
%TO.N,Net-(D10-RA)*%
X146585000Y-92550000D03*
D10*
%TO.P,D10,2,GA*%
%TO.N,Net-(D10-GA)*%
X147855000Y-92550000D03*
%TO.P,D10,3,BA*%
%TO.N,Net-(D10-BA)*%
X149125000Y-92550000D03*
%TO.P,D10,4,K*%
%TO.N,GND*%
X150395000Y-92550000D03*
%TD*%
D22*
%TO.N,Net-(D10-RA)*%
X161021000Y-87456000D02*
X159920000Y-86355000D01*
X163561000Y-86811050D02*
X162916050Y-87456000D01*
X163561000Y-85898950D02*
X163561000Y-86811050D01*
X162515050Y-84853000D02*
X163561000Y-85898950D01*
X149704950Y-84853000D02*
X162515050Y-84853000D01*
X148659000Y-85898950D02*
X149704950Y-84853000D01*
X148659000Y-90111000D02*
X148659000Y-85898950D01*
X162916050Y-87456000D02*
X161021000Y-87456000D01*
X146585000Y-92185000D02*
X148659000Y-90111000D01*
X146585000Y-92550000D02*
X146585000Y-92185000D01*
%TO.N,Net-(D10-GA)*%
X161359000Y-85254000D02*
X162460000Y-86355000D01*
X151843950Y-85254000D02*
X161359000Y-85254000D01*
X151199000Y-85898950D02*
X151843950Y-85254000D01*
X147855000Y-92185000D02*
X151199000Y-88841000D01*
X147855000Y-92550000D02*
X147855000Y-92185000D01*
X151199000Y-88841000D02*
X151199000Y-85898950D01*
%TO.N,GND*%
X144250000Y-39280000D02*
X144170000Y-39200000D01*
X145740000Y-39280000D02*
X144250000Y-39280000D01*
X152730000Y-39280000D02*
X152810000Y-39200000D01*
X151240000Y-39280000D02*
X152730000Y-39280000D01*
%TO.N,+5V*%
X150010000Y-40010000D02*
X150010000Y-39280000D01*
%TO.N,Net-(U1-PD5)*%
X157492000Y-86467000D02*
X157380000Y-86355000D01*
X157492000Y-115713564D02*
X157492000Y-86467000D01*
X155790000Y-117415564D02*
X157492000Y-115713564D01*
%TO.N,Net-(U1-XTAL2{slash}PB7)*%
X154840000Y-96840000D02*
X154840000Y-86355000D01*
X157091000Y-99091000D02*
X154840000Y-96840000D01*
X155790000Y-108865564D02*
X157091000Y-107564564D01*
X157091000Y-107564564D02*
X157091000Y-99091000D01*
%TO.N,Net-(U1-XTAL1{slash}PB6)*%
X152300000Y-96825564D02*
X152300000Y-86355000D01*
X155790000Y-100315564D02*
X152300000Y-96825564D01*
%TO.N,Net-(U1-PD4)*%
X139397950Y-85000000D02*
X143325000Y-85000000D01*
X138499000Y-85898950D02*
X139397950Y-85000000D01*
X138499000Y-94336672D02*
X138499000Y-85898950D01*
X143325000Y-85000000D02*
X144680000Y-86355000D01*
X143939000Y-116114564D02*
X143939000Y-99776672D01*
X145240000Y-117415564D02*
X143939000Y-116114564D01*
X143939000Y-99776672D02*
X138499000Y-94336672D01*
%TO.N,Net-(U1-PD3)*%
X142140000Y-90142000D02*
X142140000Y-86355000D01*
X146541000Y-94543000D02*
X142140000Y-90142000D01*
X146541000Y-107564564D02*
X146541000Y-94543000D01*
X145240000Y-108865564D02*
X146541000Y-107564564D01*
%TO.N,Net-(U1-PD2)*%
X139600000Y-94675564D02*
X139600000Y-86355000D01*
X145240000Y-100315564D02*
X139600000Y-94675564D01*
%TO.N,Net-(U1-PD1)*%
X137060000Y-115045564D02*
X137060000Y-86355000D01*
X134690000Y-117415564D02*
X137060000Y-115045564D01*
%TO.N,Net-(U1-PD0)*%
X135991000Y-107564564D02*
X135991000Y-87826000D01*
X134690000Y-108865564D02*
X135991000Y-107564564D01*
X135991000Y-87826000D02*
X134520000Y-86355000D01*
%TO.N,Net-(U1-~{RESET}{slash}PC6)*%
X131980000Y-97605564D02*
X131980000Y-86355000D01*
X134690000Y-100315564D02*
X131980000Y-97605564D01*
%TO.N,+5V*%
X152300000Y-81275000D02*
X147220000Y-86355000D01*
X152300000Y-78735000D02*
X152300000Y-81275000D01*
%TO.N,display*%
X134739000Y-76414000D02*
X137060000Y-78735000D01*
X139395000Y-49915000D02*
X134739000Y-54571000D01*
X134739000Y-54571000D02*
X134739000Y-76414000D01*
X139395000Y-49550000D02*
X139395000Y-49915000D01*
%TO.N,Net-(D2-DO)*%
X161385000Y-49950000D02*
X161385000Y-49585000D01*
X160148000Y-51187000D02*
X161385000Y-49950000D01*
X147812000Y-51187000D02*
X160148000Y-51187000D01*
X146575000Y-49950000D02*
X147812000Y-51187000D01*
X146575000Y-49585000D02*
X146575000Y-49950000D01*
%TO.N,+5V*%
X150731283Y-50786000D02*
X149951000Y-50786000D01*
X149115000Y-49950000D02*
X149115000Y-49585000D01*
X151221000Y-41221000D02*
X151221000Y-50296283D01*
X151221000Y-50296283D02*
X150731283Y-50786000D01*
X150010000Y-40010000D02*
X151221000Y-41221000D01*
X149951000Y-50786000D02*
X149115000Y-49950000D01*
%TO.N,Net-(D8-DO)*%
X160569000Y-70384000D02*
X161405000Y-71220000D01*
X147451000Y-70384000D02*
X160569000Y-70384000D01*
X146615000Y-71220000D02*
X147451000Y-70384000D01*
X161405000Y-71220000D02*
X161405000Y-71585000D01*
X146615000Y-71585000D02*
X146615000Y-71220000D01*
%TO.N,Net-(D7-DO)*%
X150425000Y-71950000D02*
X150425000Y-71585000D01*
X149589000Y-72786000D02*
X150425000Y-71950000D01*
X136411000Y-72786000D02*
X149589000Y-72786000D01*
X135575000Y-71950000D02*
X136411000Y-72786000D01*
X135575000Y-71585000D02*
X135575000Y-71950000D01*
%TO.N,Net-(D6-DO)*%
X139385000Y-64760000D02*
X139385000Y-71585000D01*
X135575000Y-60950000D02*
X139385000Y-64760000D01*
X135575000Y-60585000D02*
X135575000Y-60950000D01*
%TO.N,Net-(D5-DO)*%
X146575000Y-60585000D02*
X139385000Y-60585000D01*
%TO.N,Net-(D4-DO)*%
X157580000Y-60585000D02*
X150385000Y-60585000D01*
%TO.N,Net-(D3-DO)*%
X162221000Y-59754000D02*
X161390000Y-60585000D01*
X161731283Y-48384000D02*
X162221000Y-48873717D01*
X158411000Y-48384000D02*
X161731283Y-48384000D01*
X157575000Y-49220000D02*
X158411000Y-48384000D01*
X162221000Y-48873717D02*
X162221000Y-59754000D01*
X157575000Y-49585000D02*
X157575000Y-49220000D01*
%TO.N,Net-(D1-DO)*%
X136508717Y-48349000D02*
X149514000Y-48349000D01*
X135585000Y-49272717D02*
X136508717Y-48349000D01*
X150385000Y-49220000D02*
X150385000Y-49585000D01*
X135585000Y-49550000D02*
X135585000Y-49272717D01*
X149514000Y-48349000D02*
X150385000Y-49220000D01*
%TO.N,GND*%
X145660000Y-39200000D02*
X145740000Y-39280000D01*
X151320000Y-39200000D02*
X151240000Y-39280000D01*
%TD*%
M02*
